<?xml version="1.0" standalone="no"?>
<!DOCTYPE svg PUBLIC "-//W3C//DTD SVG 1.1//EN" "http://www.w3.org/Graphics/SVG/1.1/DTD/svg11.dtd" >
<svg xmlns="http://www.w3.org/2000/svg" xmlns:xlink="http://www.w3.org/1999/xlink" version="1.1">
<metadata>
Created by FontForge 20150318 at Thu Jul  9 15:55:00 2015
 By uniteet7
</metadata>
<defs>
<font id="ecco" horiz-adv-x="1024" >
  <font-face 
    font-family="ecco"
    font-weight="400"
    font-stretch="normal"
    units-per-em="1024"
    panose-1="0 0 0 0 0 0 0 0 0 0"
    ascent="960"
    descent="-64"
    x-height="960"
    bbox="0 -71 3962 997"
    underline-thickness="0"
    underline-position="0"
    unicode-range="U+0001-FFFD"
  />
<missing-glyph 
 />
    <glyph glyph-name=".notdef" unicode="&#xfffd;" 
 />
    <glyph glyph-name="glyph1" horiz-adv-x="0" 
d="M0 0v0v0v0z" />
    <glyph glyph-name="glyph1" horiz-adv-x="0" 
d="M0 0v0v0v0z" />
    <glyph glyph-name="nonmarkingreturn" horiz-adv-x="341" 
 />
    <glyph glyph-name="uni0001" horiz-adv-x="0" 
d="M0 0v0v0v0z" />
    <glyph glyph-name="space" unicode=" " horiz-adv-x="512" 
d="M0 0v0v0v0z" />
    <glyph glyph-name="exclam" unicode="!" horiz-adv-x="3995" 
d="M1346 910q39 15 79.5 22.5t84.5 7.5q56 0 108.5 -12.5t100 -35.5t88.5 -55.5t73 -72.5q9 -11 14 -24.5t5 -27.5q0 -21 -8 -37.5t-24 -27.5l-1 -1q-10 -8 -22.5 -12t-26.5 -4q-19 0 -35.5 8t-28.5 22q-13 17 -28 31t-33 26q-38 28 -84.5 43.5t-97.5 15.5q-29 0 -55.5 -5
t-52.5 -15q-49 -18 -89.5 -51.5t-68.5 -77.5q-22 -35 -34 -77t-12 -86q0 -34 6.5 -65t19.5 -59q16 -38 41.5 -70.5t58.5 -57.5q39 -29 86.5 -45t99.5 -16q74 0 137.5 32t106.5 84q11 15 27.5 23.5t36.5 8.5q34 0 58 -24.5t24 -58.5q0 -14 -5 -27.5t-13 -23.5
q-33 -41 -74 -74t-88.5 -56t-100 -35.5t-109.5 -12.5q-98 0 -185 37t-151.5 102t-102 152t-37.5 186q0 69 19 133.5t54 119.5q41 65 103 115.5t136 77.5v0zM2332 910q39 15 79.5 22t85.5 7q56 0 108.5 -12t99.5 -35t88 -56t74 -73q8 -11 13.5 -24t5.5 -28q0 -20 -8.5 -36.5
t-23.5 -27.5l-1 -2q-10 -7 -23 -11.5t-26 -4.5q-20 0 -36.5 8.5t-27.5 22.5q-13 16 -28.5 30.5t-32.5 26.5q-39 27 -85 42.5t-97 15.5q-29 0 -56 -5t-52 -14q-49 -19 -90 -52t-68 -77q-22 -36 -34.5 -77.5t-12.5 -86.5q0 -33 7 -64t19 -60q17 -38 42 -70t58 -57
q39 -29 86.5 -45.5t100.5 -16.5q73 0 136.5 32t106.5 85q11 14 28 22.5t36 8.5q34 0 58 -24t24 -58q0 -15 -4.5 -28t-13.5 -23q-33 -41 -74 -74t-88 -56.5t-100 -36t-109 -12.5q-99 0 -186 37.5t-151.5 102t-102 151.5t-37.5 186q0 70 19 134t54 119q41 66 103.5 116
t135.5 78v0zM3114 165q33 -41 73.5 -74t88 -56t100.5 -35.5t109 -12.5q99 0 185.5 37.5t151.5 102t102.5 151.5t37.5 186q0 69 -19 133.5t-54 119.5q-11 17 -29.5 28t-40.5 11q-34 0 -58 -24t-24 -58q0 -12 4 -24.5t10 -22.5q22 -35 34.5 -77t12.5 -86q0 -33 -7 -64.5
t-19 -59.5q-17 -38 -42.5 -70.5t-57.5 -57.5q-39 -29 -86.5 -45t-100.5 -16q-73 0 -136.5 32t-106.5 84q-33 41 -51.5 90.5t-18.5 105.5q0 79 36 145.5t95 108.5q38 28 84.5 43.5t97.5 15.5q29 0 56 -5t53 -15q6 -2 13 -3.5t14 -1.5q34 0 58.5 24t24.5 58q0 27 -15.5 48
t-38.5 29q-39 15 -79.5 22.5t-85.5 7.5q-56 0 -108.5 -12.5t-100 -35.5t-88.5 -55.5t-73 -72.5q-25 -31 -45 -66t-33.5 -73t-21 -78.5t-7.5 -83.5q0 -42 7.5 -82.5t21 -78t33 -72.5t44.5 -65v0zM361 910q-24 -8 -39 -29t-15 -48q0 -34 24 -58t58 -24q7 0 14.5 1.5t13.5 3.5
q26 10 52.5 15t56.5 5q50 0 97 -16.5t85 -43.5l-469 -376q-13 28 -19.5 59t-6.5 64q0 45 12 86.5t34 77.5q6 10 10 22t4 25q0 34 -23.5 57.5t-58.5 23.5q-22 0 -40 -10.5t-29 -27.5q-35 -55 -54 -119.5t-19 -134.5q0 -99 37.5 -185.5t102 -151.5t151.5 -102.5t186 -37.5
q56 0 109 13t100 36t88 56t74 74q9 10 13.5 23.5t4.5 27.5q0 34 -24 58t-58 24q-19 0 -36 -8t-28 -23q-43 -52 -106.5 -84t-136.5 -32q-53 0 -100.5 16.5t-86.5 45.5l543 434q15 11 24 27.5t9 36.5q0 15 -5.5 28.5t-13.5 23.5q-33 41 -74 73.5t-88 55.5t-99.5 35.5
t-108.5 12.5q-45 0 -85.5 -7.5t-79.5 -22.5v0z" />
    <glyph glyph-name="quotedbl" unicode="&#x22;" horiz-adv-x="1125" 
d="M64 898h1022v-204h-1022v204zM64 541h1022v-205h-1022v205zM64 183h1022v-205h-1022v205z" />
    <glyph glyph-name="numbersign" unicode="#" horiz-adv-x="1019" 
d="M995 104l-6 6v0l-239 239q25 43 39 92t14 103q1 81 -29.5 153t-83.5 125.5t-124.5 85t-153.5 31.5l-1 0.5l-1 0.5q-81 -1 -152.5 -31.5t-125 -83.5t-84.5 -124t-32 -152q0 -82 30.5 -154t83.5 -125.5t124.5 -85t152.5 -31.5h1.5h1.5q54 0 104 14t94 39l245 -245
q14 -13 33 -13t33 13l76 77q14 14 14 33t-14 33v0zM616 340q-41 -41 -94.5 -63.5t-111.5 -22.5h-2q-61 1 -114 24.5t-92.5 63.5t-62.5 93.5t-22 114.5q0 60 23.5 113t63 92.5t92.5 62.5t114 23h2q58 0 111.5 -22.5t94.5 -64.5q42 -42 63.5 -95.5t21.5 -112.5
q-1 -59 -23 -112t-64 -94v0z" />
    <glyph glyph-name="dollar" unicode="$" horiz-adv-x="512" 
d="M77 922l256 -461l-256 -461h102l256 461l-256 461h-102z" />
    <glyph glyph-name="percent" unicode="%" horiz-adv-x="878" 
d="M682 650q6 4 14 12v0q0 -1 -5 -6q-6 -5 -7 -7q-1 1 -2 1v0zM678 649q0 1 -1 2t-1 2q2 -2 6 -3q-4 -3 -4 -1v0zM416 754q-9 1 -15 3q1 0 4 -1t6 -1q3 -1 5 -1v0zM442 775q4 2 7 1q4 -1 5 -4q-3 2 -12 3v0zM437 771l-2 2q-1 1 -3 2l-2 2q1 -1 12 -2q-4 -2 -5 -4v0zM379 819
v2q0 -2 2 -4q1 -2 1 -3zM319 797q0 -2 -1 -2v2h1v0zM439 887q119 0 220 -59t160 -160t59 -220t-59 -220t-160 -160t-220 -59q-120 0 -220 59q-101 59 -160 160t-59 220t59 220t160 160q100 59 220 59v0zM709 175l2 3q-4 5 -16 7q0 6 -8 15q-9 8 -16 9q0 2 -6 6t-10 4
q-5 2 -15 -5q-4 -1 -2 -3l-7 7q-5 4 -9 6q-1 1 -5 1q-3 0 -4 1q-1 0 -4 2t-4 3q-1 0 -4 2q-2 1 -4 0q-2 0 -4 -1q-3 -1 -5 -3q-2 -3 -3 -9q0 -7 -1 -9q-5 4 0 12q4 8 1 11q-4 4 -12 1q-8 -4 -12 -9q-1 -1 -6 -3q-5 -3 -6 -5q-3 -3 -6 -10q-2 -6 -3 -7q0 1 -1 3q-2 3 -2 4
q-7 -1 -9 2q3 -9 5 -10l-3 1q0 -3 2 -8q2 -6 2 -7q1 -3 -1 -7q-1 -5 -1 -6q0 -2 3 -7q2 -11 -1 -18q0 -1 -2 -4l-4 -6l-1 -3h-1q-1 1 -1 0q-1 -3 -6 -7q-4 -4 -5 -6q-9 -13 -5 -22q1 -5 5 -6q2 0 2 1q1 -5 -6 -15q0 -1 2 -2q-10 0 -6 -8q116 21 201 104h-1zM389 281
q9 1 17 -10q8 -10 13 -13q23 -11 34 -6q0 -5 8 -16q1 -2 3 -7l3 -6q3 -4 11 -9t11 -9q4 2 5 5q8 -20 14 -19q3 0 5 4l-1 -1q0 -1 -1 -2q4 9 3 15l4 2q3 2 3 3q-4 3 -6 -2q-17 -8 -27 13q-1 2 -3 4q-1 3 -2 7q-2 4 -1 7q0 2 3 2q6 0 7 1t-1 4q-2 2 -2 4q-1 2 -1 7q-1 5 -1 7
l-3 4l-7 7q-3 5 -4 6q-2 -6 -9 -5t-11 5q1 -1 0 -3q-1 -3 -1 -4q-8 0 -10 1q1 3 2 12q1 8 2 12q1 3 3 8q3 5 5 9t3 8q0 4 -3 6t-11 1q-11 0 -16 -12q-1 -2 -2 -7t-3 -7q-1 -2 -5 -4t-15 -1q-11 0 -15 3q-8 4 -14 17t-6 24q0 5 2 15q1 10 1 16q0 5 -3 15q2 1 6 6t6 7q1 1 3 1
h3v0l2 1q2 1 2 3q-1 1 -3 2q-1 2 -2 2q2 -2 11 -1q8 1 11 1q0 1 12 0q10 -7 14 1q0 1 -1 6q-2 6 -1 9q3 -17 19 -6q1 -2 9 -3q8 -2 11 -3q1 -1 4 -3l3 -3t3 -1q3 1 6 4q6 -9 7 -14q6 -24 11 -27q5 -1 8 -1q2 0 2 6q1 6 0 8v8l-2 21q-9 2 -11 7q-2 6 1 12t9 11q1 0 10 4t12 7
q14 11 10 22q5 -1 6 6l-3 1q-2 2 -4 3q-3 2 -3 1q6 4 1 11q3 1 4 6q2 5 6 7q5 -8 12 -2q5 5 1 10q3 5 13 7t11 5h4q1 1 1 3v4v0l1 5q1 5 2 4q2 4 9 6q7 3 8 3l11 7q2 3 0 3q10 -2 18 6q7 7 -3 13q1 4 -2 6q-4 2 -9 3q1 1 7 0q5 0 6 1q9 7 -4 10q-11 3 -26 -7q-2 -1 -8 -7
t-10 -6q9 10 3 12q5 0 13 5q8 6 9 6q2 2 6 2t5 1q40 14 52 -1q5 7 7 9q1 2 5 5t9 5q12 4 13 5l1 13q-7 -1 -11 4q-3 6 -4 13l-3 -5q0 4 -2 5t-4 0q-3 -1 -6 -1q-3 -1 -4 0q-5 1 -11 9q-6 7 -8 9q5 0 5 3q-1 3 -6 5q1 3 -1 4t-5 0q-1 7 -1 8q-3 0 -6 6t-5 6q-1 0 -2 -2
q-2 -1 -3 -3l-3 -4v0l-2 -3l-1 -1q-7 3 -14 -6q-5 1 -10 -1q9 4 2 8q-7 2 -12 1q6 3 5 8t-7 9q1 0 3 -1h2q-1 3 -5 5q-5 3 -12 5l-8 4q-4 3 -20 6q-17 3 -21 1q-3 -2 -3 -4q-1 -1 1 -4q1 -4 2 -5q3 -13 3 -16q-1 -1 -5 -4q-5 -3 -3 -7q0 -2 6 -6q6 -3 7 -7q3 -7 -2 -14
q-2 -3 -9 -6q-6 -4 -8 -6q-2 -3 -2 -7q1 -3 1 -5v1q0 1 1 2q0 -8 6 -13q5 -3 -9 -10q-11 -6 -11 -2t-5 9q-5 4 -6 7q-1 2 -2 11q-1 8 -5 12q-4 2 -11 2t-10 -3q0 6 -28 17q-10 5 -33 2q4 1 0 10q-5 9 -12 7q-5 14 -3 20q1 3 5 8t6 9q0 1 8 3q9 2 10 5q0 2 -2 3q-2 2 -5 3
q30 -4 36 10q3 5 2 8h1t1 -1q7 2 4 10q11 4 15 4q3 0 6 -3q4 -3 6 -3q10 -2 12 6q3 7 -5 13q4 -2 4 3q-1 8 -4 11l-4 2h-4q-1 -1 -4 0l-4 1l-1 -1h-5q-2 -1 -2 -2v-1q-1 -2 2 -3l3 -1l2 -1q-1 0 -2 -2l-1 -1q0 -2 1 -3q-1 0 -8 -4l-9 -6q-1 -1 -3 -2q-1 0 -2 -1t-2 1t-2 5
q-2 4 -3 7l-2 6q-2 2 -3 2q-7 0 -11 -10q2 6 -7 10q-9 5 -14 5q11 8 -6 17v0q-17 -2 -26 -4q-1 -3 2 -6q-1 -4 3 -6h1v-1v1h-1h6q5 -1 6 -1q1 -1 2 -1l5 -3v0l3 -4q3 -3 -2 -3q-1 0 -5 -2t-7 -3t-4 -2q-1 -3 0 -9q2 -6 -1 -9q-3 3 -6 11q-2 8 -4 10q4 -5 -17 -4l-5 1
q-2 0 -8 -1q-7 -1 -10 -1q-4 0 -16 4q4 9 3 14q3 0 4 1l-4 2q-1 -1 -14 -5q1 -2 5 -6q3 -3 5 -6q-13 3 -16 -1q0 -1 -5 0q-14 0 -14 -4q1 -3 6 -7q0 -5 -1 -5q-15 12 -17 13q-98 -48 -158 -142q1 -1 2 -6q0 -5 2 -5q1 0 6 2q5 -5 2 -12q1 2 20 -12q32 -22 13 -30v3v0v4
q-5 -1 -11 3q-1 -4 1 -12t6 -8q-4 0 -6 -9q-1 -10 -1 -22q0 -13 -1 -15h1q-1 -8 4 -22t14 -12q-3 -10 2 -12v-4q1 -2 3 -5t3 -4l8 -8q16 -6 24 -16q2 -4 6 -14q3 -11 8 -15q-1 -3 6 -12t6 -15h-1h-1q1 -5 9 -10q8 -4 9 -8q2 -1 2 -6q0 -4 2 -6q1 -3 4 -2q2 14 -14 39
q-10 15 -11 18l-3 9q-1 7 -2 9q15 -5 14 -7q-2 -6 15 -30q1 -2 6 -6t6 -7q2 -2 6 -8q3 -6 6 -9q-1 0 -2 -1l-2 -2q3 -1 5 -3q3 -1 5 -2t4 -3q3 -2 5 -4q9 -11 11 -19q1 -2 0 -9q0 -7 1 -9q1 -4 4 -7q2 -3 6 -5q4 -3 7 -4q2 -2 8 -4q6 -3 7 -3q1 -1 10 -7q9 -5 14 -8
q6 -2 10 -2q3 0 9 1q5 2 9 3v0z" />
    <glyph glyph-name="ampersand" unicode="&#x26;" horiz-adv-x="1294" 
d="M0 959v-1022h1294l-450 1022h-844v0z" />
    <glyph glyph-name="asterisk" unicode="*" horiz-adv-x="786" 
d="M594 960h-396l-198 -341l397 -683l395 683l-198 341v0zM582 938l185 -319l-370 -640l-372 640l186 319h371v0zM390 529q22 0 40 8.5t33 25.5q3 5 8 7t11 2q5 0 9.5 -1.5t8.5 -4.5q3 -4 4.5 -8.5t1.5 -9.5q0 -4 -1 -8t-4 -7q-21 -26 -49 -39.5t-62 -13.5q-29 0 -54 10.5
t-46 31.5q-21 20 -31.5 45t-10.5 54q0 21 5.5 40t16.5 37q4 5 9 7.5t12 2.5q4 0 8.5 -1.5t8.5 -4.5q3 -4 5 -8.5t2 -9.5q0 -4 -1 -7t-3 -7q-7 -11 -10.5 -23t-3.5 -26q0 -9 2 -18t5 -18l141 113q-12 8 -26 12.5t-29 4.5q-8 0 -16 -1.5t-16 -5.5q-3 0 -5 -0.5t-4 -0.5
q-4 0 -8.5 2t-8.5 6q-4 3 -5.5 7.5t-1.5 9.5q0 8 4 14t12 9q12 4 24 6.5t25 2.5q34 0 62 -13t49 -40q3 -3 4 -7t1 -8q0 -6 -2 -10.5t-7 -8.5l-163 -129q13 -10 27 -14.5t29 -4.5v0zM396 855q-49 0 -91.5 -18t-74.5 -50t-50.5 -74.5t-18.5 -91.5q0 -48 18.5 -90.5t50.5 -74.5
t74.5 -50.5t91.5 -18.5t92 18.5t74.5 50.5t50 74.5t18.5 90.5q0 49 -18.5 91.5t-50 74.5t-74.5 50t-92 18v0z" />
    <glyph glyph-name="plus" unicode="+" horiz-adv-x="1175" 
d="M627 407v-244h-82v244h-244v82h244v244h82v-244h244v-82h-244v0z" />
    <glyph glyph-name="hyphen" unicode="-" 
d="M245 474h534v-74h-534v74z" />
    <glyph glyph-name="zero" unicode="0" 
d="M512 -64v513h-512l1024 511l-512 -1024v0z" />
    <glyph glyph-name="one" unicode="1" horiz-adv-x="2907" 
d="M0 141v-205l1433 819l1433 -819v205l-1433 819z" />
    <glyph glyph-name="two" unicode="2" horiz-adv-x="1175" 
d="M294 -63l-294 511l294 511h587l294 -511l-294 -511h-587z" />
    <glyph glyph-name="three" unicode="3" 
d="M512 960q106 0 199.5 -40t163 -109.5t109.5 -163t40 -199.5q0 -98 -34.5 -185t-95 -155t-142 -112t-176.5 -56v380h176l16 128h-192v64q0 27 18.5 45.5t45.5 18.5h128v128h-128q-80 0 -136 -56t-56 -136v-64h-96v-128h96v-380q-95 12 -176.5 56t-142 112t-95 155
t-34.5 185q0 106 40 199.5t109.5 163t163 109.5t199.5 40v0z" />
    <glyph glyph-name="four" unicode="4" 
d="M512 960q-106 0 -199.5 -40.5t-163 -110.5t-109.5 -164t-40 -201q0 -106 40 -200t109.5 -164t163 -110.5t199.5 -40.5t199.5 40.5t163 110.5t109.5 164t40 201q0 106 -40 200t-109.5 164t-163 110.5t-199.5 40.5v0zM288 288q-66 0 -113 47t-47 113t47 113t113 47t113 -47
t47 -113t-47 -113t-113 -47v0zM736 288q-66 0 -113 47t-47 113t47 113t113 47t113 -47t47 -113t-47 -113t-113 -47v0z" />
    <glyph glyph-name="five" unicode="5" 
d="M437 142q0 -56 -39.5 -96t-138.5 -43q-57 33 -105 79.5t-82 103.5q18 43 68.5 72.5t114.5 29.5q18 -1 34.5 -3.5t31.5 -7.5q42 -29 73 -51.5t40 -56.5q1 -6 2 -13t1 -14v0zM512 960q-55 0 -107.5 -11.5t-100 -32.5t-90 -51t-77.5 -68q28 15 60 24t67 9h68.5h85h72.5h31
l-58 -61h-67q36 -20 54.5 -59t18.5 -86q0 -42 -21.5 -76.5t-54.5 -60.5q-32 -25 -41.5 -40t-9.5 -36q0 -19 28.5 -42.5t46.5 -36.5q62 -47 81 -84t19 -95q0 -59 -49.5 -111.5t-136.5 -72.5q42 -16 87.5 -24.5t93.5 -8.5q106 0 199.5 40t163 109.5t109.5 163t40 199.5
t-40 199.5t-109.5 163t-163 109.5t-199.5 40v0zM768 576v-128h-64v128h-128v64h128v128h64v-128h128v-64h-128v0zM366 621q9 -69 -18 -109t-79 -39q-52 2 -95 45.5t-52 111.5t21.5 113.5t82.5 44.5q51 -2 91 -50.5t49 -116.5v0zM221 318q-56 0 -102.5 -17.5t-80.5 -46.5
q-18 45 -28 94t-10 100q0 43 7 83.5t19 78.5q6 -74 56.5 -125t136.5 -51q7 0 13 0.5t12 0.5q-6 -11 -9.5 -23.5t-3.5 -26.5q0 -22 10.5 -37t25.5 -30h-22.5h-23.5v0z" />
    <glyph glyph-name="six" unicode="6" 
d="M512 960q-106 0 -199.5 -40t-163 -109.5t-109.5 -163t-40 -199.5t40 -199.5t109.5 -163t163 -109.5t199.5 -40t199.5 40t163 109.5t109.5 163t40 199.5t-40 199.5t-109.5 163t-163 109.5t-199.5 40v0zM806 599q0 -5 0.5 -10t0.5 -10q0 -75 -28.5 -152t-83 -139
t-135.5 -101.5t-185 -39.5q-65 0 -124 18t-109 51q9 -2 18 -2.5t18 -0.5q54 0 102 17.5t87 47.5q-50 1 -89 31t-53 75q7 -2 14 -2.5t15 -0.5q10 0 20 1.5t20 3.5q-53 11 -87.5 52.5t-34.5 96.5v1.5v0.5q15 -8 32.5 -13t36.5 -6q-31 21 -49.5 54t-18.5 73q0 20 5.5 39.5
t15.5 36.5q28 -35 62.5 -63t74.5 -48.5t84 -32.5t91 -15q-1 9 -2 17.5t-1 17.5q0 63 44 107.5t107 44.5q33 0 61.5 -13t49.5 -35q26 5 50.5 14.5t46.5 22.5q-9 -27 -26.5 -48.5t-40.5 -35.5q23 2 45 8t42 16q-15 -23 -34.5 -43t-41.5 -36v0z" />
    <glyph glyph-name="seven" unicode="7" 
d="M512 960q-106 0 -199.5 -40t-163 -109.5t-109.5 -163t-40 -199.5t40 -199.5t109.5 -163t163 -109.5t199.5 -40t199.5 40t163 109.5t109.5 163t40 199.5t-40 199.5t-109.5 163t-163 109.5t-199.5 40v0zM320 192q-27 0 -45.5 18.5t-18.5 45.5t18.5 45.5t45.5 18.5
t45.5 -18.5t18.5 -45.5t-18.5 -45.5t-45.5 -18.5v0zM496 192q0 50 -19 93.5t-51.5 76t-76 51.5t-93.5 19v96q69 0 130.5 -26.5t107 -72t72 -107t26.5 -130.5h-96v0zM688 192q0 43 -8.5 85t-24.5 80.5t-39.5 74t-54.5 65.5q-30 31 -65.5 54.5t-74 39.5t-80.5 24.5t-85 8.5v96
q53 0 104 -10t98.5 -30t90.5 -48.5t80 -66.5q38 -37 66.5 -80t48.5 -90.5t30 -98.5t10 -104h-96v0z" />
    <glyph glyph-name="eight" unicode="8" 
d="M512 960q-106 0 -199.5 -40t-163 -109.5t-109.5 -163t-40 -199.5t40 -199.5t109.5 -163t163 -109.5t199.5 -40t199.5 40t163 109.5t109.5 163t40 199.5t-40 199.5t-109.5 163t-163 109.5t-199.5 40v0zM562 276q-35 3 -55.5 17.5t-47.5 31.5q-15 -79 -39 -149t-78 -110
q-8 60 -3.5 112.5t15 102t24 96.5t23.5 94q-17 28 -16.5 65.5t14 68.5t39.5 48t60 4q43 -17 35 -62.5t-23.5 -95.5t-18 -92t50.5 -53q56 -11 94 29t55 100t10 123.5t-42 98.5q-50 51 -116 55t-123.5 -26.5t-93 -88t-23.5 -130.5q6 -35 26.5 -56.5t-7.5 -70.5
q-63 14 -86 61.5t-21 114.5q2 55 25 101t59 80.5t81.5 55.5t93.5 26q60 7 116.5 -3.5t101.5 -37.5t75.5 -69.5t38.5 -98.5q8 -64 -4.5 -127.5t-44.5 -112.5t-81.5 -78t-113.5 -24v0z" />
    <glyph glyph-name="nine" unicode="9" 
d="M852 960h-680q-71 0 -121.5 -50.5t-50.5 -121.5v-680q0 -71 50.5 -121.5t121.5 -50.5h680q71 0 121.5 50.5t50.5 121.5v680q0 71 -50.5 121.5t-121.5 50.5v0zM384 128h-128v448h128v-448v0zM320 640q-27 0 -45.5 18.5t-18.5 45.5t18.5 45.5t45.5 18.5t45.5 -18.5
t18.5 -45.5t-18.5 -45.5t-45.5 -18.5v0zM832 128h-128v256q0 27 -18.5 45.5t-45.5 18.5t-45.5 -18.5t-18.5 -45.5v-256h-128v448h128v-79q20 27 49 53t63 26q60 0 102 -47t42 -113v-288v0z" />
    <glyph glyph-name="colon" unicode=":" 
d="M512 9q-15 0 -25 10l-357 344l-15 15q-10 11 -32 38t-39 55q-17 29 -31 70q-13 40 -13 78q0 126 73 197q72 71 200 71q36 0 72 -12q37 -13 69 -34q32 -20 55 -39q22 -18 43 -39q21 21 43 39q23 19 55 39q32 21 69 34q36 12 72 12q128 0 200 -71q73 -71 73 -197t-131 -257
l-356 -343q-10 -10 -25 -10v0z" />
    <glyph glyph-name="equal" unicode="=" 
d="M0 960l1024 -1024h-1024v1024z" />
    <glyph glyph-name="question" unicode="?" 
d="M512 960q-106 0 -199.5 -40t-163 -109.5t-109.5 -163t-40 -199.5t40 -199.5t109.5 -163t163 -109.5t199.5 -40t199.5 40t163 109.5t109.5 163t40 199.5t-40 199.5t-109.5 163t-163 109.5t-199.5 40v0zM512 -31q-99 0 -186.5 37.5t-152.5 102.5t-102.5 152.5t-37.5 186.5
t37.5 186.5t102.5 152.5t152.5 102.5t186.5 37.5t186.5 -37.5t152.5 -102.5t102.5 -152.5t37.5 -186.5t-37.5 -186.5t-102.5 -152.5t-152.5 -102.5t-186.5 -37.5v0zM426 631v-355l303 176z" />
    <glyph glyph-name="at" unicode="@" 
d="M951 101v438q-18 -20 -40 -37q-153 -118 -243 -193q-29 -25 -47 -39q-19 -13 -50 -27t-58 -14h-2q-27 0 -58 14t-50 27q-18 14 -47 39q-90 75 -243 193q-22 17 -40 37v-438q0 -8 6 -13q5 -6 12 -6h842q7 0 12 6q6 5 6 13v0zM951 701v14v0v8q-1 7 -2 7q-2 -1 -3 5
q-2 5 -5 4q-4 -1 -8 2h-842q-7 0 -12 -6q-6 -5 -6 -13q0 -96 84 -162q110 -87 229 -181q4 -3 20 -17q17 -14 27 -21q9 -8 25 -18q16 -11 29 -16t24 -5h2q11 0 24 5t29 16q16 10 25 18q10 7 27 21q16 14 20 17q119 94 229 181q31 25 57 66q27 41 27 75v0zM1024 722v-621
q0 -38 -27 -65t-64 -27h-842q-37 0 -64 27t-27 65v621q0 38 27 65t64 27h842q37 0 64 -27t27 -65v0z" />
    <glyph glyph-name="underscore" unicode="_" 
d="M512 892q-60 0 -115.5 -15t-106.5 -45q-51 -31 -91.5 -71t-70.5 -91t-45 -106.5t-15 -115.5t15 -115.5t45 -106.5t70.5 -91.5t91.5 -70.5t106.5 -45t115.5 -15v0q60 0 115.5 15t106.5 45t91.5 70.5t70.5 91.5t45 106.5t15 115.5t-15 115.5t-45 106.5t-70.5 91t-91.5 71
q-51 30 -106.5 45t-115.5 15v0zM512 857q55 0 106.5 -14t97.5 -41q47 -28 84.5 -65.5t65.5 -84.5q28 -46 41.5 -97.5t13.5 -106.5t-13.5 -106.5t-41.5 -97.5q-28 -47 -65.5 -84.5t-84.5 -65.5q-46 -27 -97.5 -41t-106.5 -14t-106.5 14t-97.5 41q-47 28 -84.5 65.5
t-65.5 84.5q-27 46 -41 97.5t-14 106.5t14 106.5t41 97.5q28 47 65.5 84.5t84.5 65.5q46 27 97.5 41t106.5 14v0zM512 526q-4 0 -8 1.5t-7 4.5l-92 92q-3 3 -3 7.5t3 8.5q3 3 7.5 3t7.5 -3l92 -92l92 92q3 3 7.5 3t7.5 -3q3 -4 3 -8.5t-3 -7.5l-92 -92q-3 -3 -7 -4.5
t-8 -1.5v0zM413 253q-2 0 -4 1l-4 2q-3 3 -3 7.5t3 8.5l92 92q3 3 7 4.5t8 1.5v0q4 0 8 -2t7 -4l92 -92q3 -4 3 -8t-3 -8q-3 -3 -7.5 -3t-7.5 3l-92 92l-92 -92q-1 -1 -3 -2t-4 -1v0zM512 530q-7 0 -12 5t-5 12v227q0 7 5 12t12 5t12 -5t5 -12v-227q0 -7 -5 -12t-12 -5v0z
M512 520q-5 0 -10 2t-10 6l-91 92q-6 5 -6 12t6 12q5 5 12 5t12 -5l87 -87l87 87q5 5 12 5t13 -5q5 -5 5 -12t-5 -12l-92 -92q-4 -4 -9.5 -6t-10.5 -2v0zM512 105q-7 0 -12 5t-5 12v227q0 7 5 12t12 5t12 -5t5 -12v-227q0 -7 -5 -12t-12 -5v0zM413 247q-3 0 -6.5 1t-5.5 4
q-6 5 -6 12t6 12l92 92q3 4 8 6t11 2t11 -2t9 -6l92 -92q5 -5 5 -12t-5 -12q-6 -5 -13 -5t-12 5l-87 87l-87 -87q-2 -3 -5.5 -4t-6.5 -1v0zM696 338q-2 0 -4 0.5t-4 2.5l-92 92q-6 6 -6 15t6 15l92 92q4 3 8.5 3t7.5 -3t3 -7.5t-3 -7.5l-92 -92l92 -92q3 -3 3 -7.5t-3 -7.5
q-2 -2 -4 -2.5t-4 -0.5v0zM328 338q-2 0 -4 0.5t-4 2.5q-3 3 -3 7.5t3 7.5l92 92l-92 92q-3 3 -3 7.5t3 7.5q4 3 8 3t8 -3l92 -92q3 -3 4.5 -7t1.5 -8t-1.5 -8t-4.5 -7l-92 -92l-4 -2t-4 -1v0zM838 431h-227q-7 0 -12 5t-5 12t5 12t12 5h227q7 0 12 -5t5 -12t-5 -12t-12 -5
v0zM696 332q-3 0 -6.5 1t-5.5 4l-92 91q-8 9 -8 20t8 19l92 92q5 5 12 5t12 -5t5 -12t-5 -12l-87 -87l87 -87q5 -5 5 -12t-5 -12q-2 -3 -5.5 -4t-6.5 -1v0zM186 431q-7 0 -12 5t-5 12t5 12t12 5h227q7 0 12 -5t5 -12t-5 -12t-12 -5h-227v0zM328 332q-3 0 -6.5 1t-5.5 3
q-5 6 -5 13t5 12l87 87l-87 87q-5 5 -5 12t5 12t12 5t12 -5l92 -92q4 -3 6 -8t2 -11t-2 -11t-6 -9l-92 -92q-2 -2 -5.5 -3t-6.5 -1v0z" />
    <glyph glyph-name="s" unicode="s" horiz-adv-x="1312" 
d="M0 813l3.5 3.5l2.5 2.5q13 19 28.5 27.5t39.5 7.5q58 -1 116.5 -1h116.5h116.5h116.5q8 0 17 1t12 -12q3 -12 -3.5 -17.5t-14.5 -10.5q-32 -19 -63 -39t-63 -39q-10 -6 -22.5 -9.5t-25.5 -3.5q-53 -1 -107 -1h-108h-12.5h-14.5v-160v-160v-160v-160h210h210h210h211
q0 6 0.5 12t0.5 12v73t1 73q0 7 3.5 16t9.5 14q18 17 38 33.5t41 31.5q6 5 16 6.5t18 -0.5q4 -1 6.5 -11t2.5 -17v-155v-154q0 -25 -22 -48t-48 -24h-10h-11h-231h-231.5h-231t-231.5 -1q-27 0 -47 8.5t-38 26.5q-3 3 -6 5.5t-6 5.5v206v206v206v206v0zM928 959
q50 -40 100 -79.5t100 -78.5q40 -32 80 -63t80 -63q5 -3 9 -6.5t9 -8.5q-48 -36 -96 -73t-95.5 -73.5t-95.5 -73.5t-97 -75v77v74q-81 5 -159 2t-153.5 -18.5t-147.5 -46t-139 -81.5q3 41 13.5 78.5t28.5 71.5q25 48 58 86t72 68.5t83.5 53.5t93.5 41q57 20 115.5 30
t118.5 12h6t7 1v73v72h4.5h4.5v0z" />
    <glyph glyph-name="v" unicode="v" 
d="M512 960q-106 0 -199.5 -40t-163 -109.5t-109.5 -163t-40 -199.5t40 -199.5t109.5 -163t163 -109.5t199.5 -40t199.5 40t163 109.5t109.5 163t40 199.5t-40 199.5t-109.5 163t-163 109.5t-199.5 40v0zM691 203q-49 -34 -99 -49.5t-93 -21t-76.5 -4.5t-48.5 2t-61.5 12
t-95.5 35.5t-86.5 65.5t-34.5 103q3 55 29.5 105.5t63 92t76 72.5t67.5 47q60 33 97.5 27l37.5 -6q25 -17 28 -46t-5 -45q-7 -16 -5.5 -21t5.5 -6q5 0 15 4t39 15q40 12 78.5 12t55.5 -21q18 -20 15.5 -46.5t-8.5 -37.5t-1.5 -16t13.5 -7q49 -17 66.5 -38.5t23.5 -35.5
q6 -17 4 -71.5t-100 -120.5v0zM730 590q-6 11 -17 22.5t-43 7.5v0h-2q-11 0 -18.5 7.5t-7.5 18.5q0 10 6.5 17.5t16.5 8.5q3 1 8 1.5t11 0.5q14 -1 33.5 -6.5t33.5 -18.5q14 -12 26 -34t11 -44q0 -22 -6.5 -37t-23.5 -15h-1q-10 0 -17 7t-8 17v3q0 10 2 21t-4 23v0zM856 484
q-12 0 -20.5 8.5t-8.5 21.5v6t1 6l2 4q2 4 3 11.5t2 22.5q1 30 -6.5 50.5t-21.5 44.5q-15 23 -37.5 36.5t-49.5 21.5q-18 6 -31 5.5t-29 -2.5q-3 -1 -8 -2l-5 -1q-12 0 -21.5 9.5t-9.5 22.5q0 12 8 20.5t20 10.5q29 6 54.5 3t44.5 -8q63 -18 98 -61.5t47 -85.5
q11 -37 7.5 -67t-7.5 -50q-4 -11 -12 -19t-20 -8v0zM423 356q-6 -1 -10 -6t-4 -11t4 -9.5t10 -3.5q8 0 13 6t5 12t-6 9.5t-12 2.5v0zM363 337q-24 0 -35.5 -15.5t-11.5 -31.5t15 -24.5t24 -8.5q23 2 35.5 16t12.5 30q0 13 -11 23.5t-29 10.5v0zM437 496q-48 0 -95 -12
t-83.5 -35t-59 -56t-22.5 -74q0 -57 60.5 -101t156.5 -44q48 0 95 13t84.5 36.5t60.5 55.5t23 70q0 62 -62 104.5t-158 42.5v0zM388 208q-46 0 -81.5 28.5t-33.5 77.5q2 43 40.5 82t100.5 36q51 -2 82.5 -30.5t30.5 -78.5q-1 -48 -47 -81.5t-92 -33.5v0z" />
    <glyph glyph-name="bar" unicode="|" horiz-adv-x="512" 
d="M435 0l-256 461l256 461h-102l-256 -461l256 -461h102z" />
    <glyph glyph-name="sterling" unicode="&#xa3;" horiz-adv-x="1175" 
d="M884 960h-589l-295 -512l295 -512h589l295 512l-295 512v0zM872 -45h-565l-283 493l283 493h565l283 -493l-283 -493v0z" />
    <glyph glyph-name="currency" unicode="&#xa4;" horiz-adv-x="974" 
d="M835 220v431h37l-37 -431v0zM752 149v502h52v-501l-1 -1h-51v0zM171 150v501h52v-502h-51l-1 1v0zM103 651h37v-430l-37 430v0zM488 734q8 0 15 -2t14 -6l-44 -42q-5 -6 -5 -13.5t5 -12.5q3 -3 6.5 -4.5t6.5 -1.5q4 0 7.5 1.5t6.5 4.5l44 43q4 -7 7 -15t3 -17
q0 -27 -19.5 -46t-46.5 -19t-46.5 19t-19.5 46t19 46t47 19v0zM669 651h52v-502h-52v502v0zM586 629q2 5 3 11t2 11h47v-502h-52v480v0zM503 567q15 2 28 7.5t24 14.5v-440h-52v418v0zM420 589q11 -9 24 -14.5t28 -7.5v-418h-52v440v0zM306 149h-52v502h52v-502v0zM337 651
h48q1 -5 1.5 -11t2.5 -11v-480h-52v502v0zM592 682q-2 13 -7 25t-13 23l240 235q5 6 5 13.5t-5 12.5q-6 6 -13.5 6t-13.5 -6l-240 -236q-12 8 -26.5 13.5t-30.5 5.5q-41 0 -70 -27t-34 -65h-314l43 -508q4 -16 17.5 -35.5t41.5 -19.5h631q28 0 42 20t17 36l44 507h-314v0z
" />
    <glyph glyph-name="yen" unicode="&#xa5;" horiz-adv-x="1408" 
d="M1330 564v0h-1252v0v0q-33 0 -55.5 -22.5t-22.5 -55.5q0 -32 23 -55t55 -23v0v0v0v0l78 -408v0q6 -27 28 -44.5t50 -17.5h939v0v0q28 0 49.5 17.5t27.5 44.5v0l80 408v0q32 0 55 23t23 55q0 33 -23 55.5t-55 22.5v0zM391 56q0 -16 -11.5 -27.5t-27.5 -11.5t-27.5 11.5
t-11.5 27.5v0v0v391v0v0q0 16 11.5 27.5t27.5 11.5t27.5 -11.5t11.5 -27.5v0v-1v-389v-1v0v0zM626 56h-1q0 -16 -11 -27.5t-28 -11.5q-16 0 -27.5 11.5t-11.5 27.5v0v0v391v0v0q0 16 11.5 27.5t27.5 11.5q17 0 28 -11.5t11 -27.5v0v0h1v-391v0zM860 56v0q0 -16 -11.5 -27.5
t-27.5 -11.5t-27.5 11.5t-11.5 27.5v0v0v391v0v0q0 16 11.5 27.5t27.5 11.5t27.5 -11.5t11.5 -27.5v0v0v0v-391v0zM1095 447v-391q0 -16 -11.5 -27.5t-27.5 -11.5q-17 0 -28 11.5t-11 27.5v0v391v0v0q0 16 11 27.5t28 11.5q16 0 27.5 -11.5t11.5 -27.5v0v0v0zM626 916
q0 17 -11.5 28.5t-28.5 11.5q-11 0 -20 -6t-14 -15v0l-155 -233v0q-3 -4 -4.5 -9.5t-1.5 -10.5q0 -16 11.5 -27.5t27.5 -11.5q10 0 18.5 4.5t14.5 12.5v0l157 236h-1q3 4 5 9.5t2 10.5v0zM782 916q0 17 11.5 28.5t27.5 11.5q11 0 20 -6t14 -15v0l156 -233v0q3 -4 4.5 -9.5
t1.5 -10.5q0 -16 -11.5 -27.5t-27.5 -11.5q-11 0 -19.5 4.5t-13.5 12.5v0l-157 236v0q-3 4 -4.5 9.5t-1.5 10.5v0z" />
    <glyph glyph-name="mu" unicode="&#xb5;" horiz-adv-x="2907" 
d="M0 960l1453 -806l1453 806v-209l-1453 -806l-1453 806v209v0z" />
    <glyph glyph-name="paragraph" unicode="&#xb6;" horiz-adv-x="360" 
d="M0 -64l284 512l-284 512h74l283 -512l-283 -512h-74v0z" />
    <glyph glyph-name="periodcentered" unicode="&#xb7;" horiz-adv-x="360" 
d="M360 -64l-284 512l284 512h-74l-283 -512l283 -512h74v0z" />
    <glyph glyph-name="uniE100" unicode="&#xe100;" 
d="M737 68q11 -10 11 -25t-11 -25q-10 -10 -24.5 -10t-24.5 10l-401 405q-11 10 -11 25t11 25l401 405q10 10 24.5 10t24.5 -10q11 -10 11 -25t-11 -25l-365 -380l365 -380v0z" />
    <glyph glyph-name="uniE101" unicode="&#xe101;" 
d="M287 68q-11 -10 -11 -25t11 -25q10 -10 24.5 -10t24.5 10l401 405q11 10 11 25t-11 25l-401 405q-10 10 -24.5 10t-24.5 -10q-11 -10 -11 -25t11 -25l365 -380l-365 -380v0z" />
    <glyph glyph-name="uniE102" unicode="&#xe102;" 
d="M892 223q10 -11 25 -11t25 11q10 10 10 24.5t-10 24.5l-405 401q-10 11 -25 11t-25 -11l-405 -401q-10 -10 -10 -24.5t10 -24.5q10 -11 25 -11t25 11l380 365l380 -365v0z" />
    <glyph glyph-name="uniE103" unicode="&#xe103;" 
d="M132 673q-10 11 -25 11t-25 -11q-10 -10 -10 -24.5t10 -24.5l405 -401q10 -11 25 -11t25 11l405 401q10 10 10 24.5t-10 24.5q-10 11 -25 11t-25 -11l-380 -365l-380 365v0z" />
    <glyph glyph-name="uniE600" unicode="&#xe600;" 
d="M512 960q-106 0 -199.5 -40t-163 -109.5t-109.5 -163t-40 -199.5t40 -199t109.5 -162.5t163 -110t199.5 -40.5t199.5 40.5t163 110t109.5 162.5t40 199t-40 199.5t-109.5 163t-163 109.5t-199.5 40v0zM512 -30q-99 0 -186.5 37.5t-152.5 102.5t-102.5 152t-37.5 186
q0 100 37.5 187t102.5 152t152.5 102.5t186.5 37.5t186.5 -37.5t152.5 -102.5t102.5 -152t37.5 -187q0 -99 -37.5 -186t-102.5 -152t-152.5 -102.5t-186.5 -37.5v0v0zM352 642h128v-384h-128v384v0zM544 639h128v-384h-128v384v0z" />
    <glyph glyph-name="uniE601" unicode="&#xe601;" horiz-adv-x="1037" 
d="M462 258q-4 0 -7 1t-6 4q-5 5 -5 12.5t5 12.5l160 160l-160 160q-5 5 -5 12.5t5 12.5q6 5 13 5t12 -5l185 -185l-185 -185q-2 -3 -5 -4t-7 -1v0zM512 -64q-106 0 -199 40.5t-162.5 110t-110 162.5t-40.5 199t40.5 199t110 162.5t162.5 110t199 40.5t199 -40.5t162.5 -110
t110 -162.5t40.5 -199t-40.5 -199t-110 -162.5t-162.5 -110t-199 -40.5v0zM512 906q-95 0 -178.5 -36t-145.5 -98t-98 -145.5t-36 -178.5t36 -178.5t98 -145.5t145.5 -98t178.5 -36t178.5 36t145.5 98t98 145.5t36 178.5t-36 178.5t-98 145.5t-145.5 98t-178.5 36v0z" />
    <glyph glyph-name="uniE602" unicode="&#xe602;" horiz-adv-x="1037" 
d="M575 258q4 0 7 1t6 4q5 5 5 12.5t-5 12.5l-160 160l160 160q5 5 5 12.5t-5 12.5q-6 5 -13 5t-12 -5l-185 -185l185 -185q2 -3 5 -4t7 -1v0zM525 -64q106 0 199 40.5t162.5 110t110 162.5t40.5 199t-40.5 199t-110 162.5t-162.5 110t-199 40.5t-199 -40.5t-162.5 -110
t-110 -162.5t-40.5 -199t40.5 -199t110 -162.5t162.5 -110t199 -40.5v0zM525 906q95 0 178.5 -36t145.5 -98t98 -145.5t36 -178.5t-36 -178.5t-98 -145.5t-145.5 -98t-178.5 -36t-178.5 36t-145.5 98t-98 145.5t-36 178.5t36 178.5t98 145.5t145.5 98t178.5 36v0z" />
    <glyph glyph-name="uniE603" unicode="&#xe603;" 
d="M1023 796v-3t-1 -2l-14 -60t-31.5 -131.5t-31.5 -131.5l-14 -60q-4 -13 -16 -20t-26 -3h-0.5h-0.5l-109 -9.5t-239 -21.5t-239 -21.5l-109 -9.5v-33.5v-33.5h120h264h264h120q13 0 22.5 -9.5t9.5 -22.5t-9.5 -22.5t-22.5 -9.5h-40h-88h-88h-40h-60h-132h-132h-60h-80h-80
q-13 0 -22.5 9.5t-9.5 22.5v105v231v231v105h-47.5h-47.5q-14 0 -23 9.5t-9 22.5t9 22.5t23 9.5h29.5h65.5h66h30q14 0 23 -9.5t9 -22.5t-9 -22.5t-23 -9.5h-16h-16v-32v-32h124h272.5h272.5h124h0.5h0.5h3h3h0.5h1.5q1 -1 2 -0.5t2 -0.5q1 0 1.5 -0.5l0.5 -0.5q3 -1 5 -2
l4 -2q1 0 1.5 -0.5l0.5 -0.5l4 -4t3 -4q0 -1 0.5 -1t0.5 -1l2 -4t1 -4q0 -1 0.5 -2.5t0.5 -2.5l0.5 -0.5t0.5 -1.5t-0.5 -2t-0.5 -2v0zM192 768v-60v-131.5v-131.5v-60l106 9.5t233 21t233 21l106 9.5l12 50t26.5 110.5t26.5 111l12 50.5h-118h-259.5h-259.5h-118v0zM832 64
q0 -53 -37.5 -90.5t-90.5 -37.5t-90.5 37.5t-37.5 90.5t37.5 90.5t90.5 37.5t90.5 -37.5t37.5 -90.5v0zM704 128q-27 0 -45.5 -18.5t-18.5 -45.5q0 -26 18.5 -45t45.5 -19q26 0 45 19t19 45q0 27 -19 45.5t-45 18.5v0zM448 64q0 -53 -37.5 -90.5t-90.5 -37.5t-90.5 37.5
t-37.5 90.5t37.5 90.5t90.5 37.5t90.5 -37.5t37.5 -90.5v0zM320 128q-26 0 -45 -18.5t-19 -45.5q0 -26 19 -45t45 -19q27 0 45.5 19t18.5 45q0 27 -18.5 45.5t-45.5 18.5v0z" />
    <glyph glyph-name="uniF000" unicode="&#xf000;" 
d="M0 960l1024 -1024h-1024v1024z" />
    <glyph glyph-name="uniF001" unicode="&#xf001;" 
d="M0 960l1024 -1024h-1024v1024z" />
  </font>
</defs>
</svg>
