<svg width="319" height="305" viewBox="0 0 319 305" fill="none" xmlns="http://www.w3.org/2000/svg">
<g filter="url(#filter0_ddd_10004_1553)">
<path d="M184.266 128C188.22 128 191.093 131.759 190.055 135.575L180.005 172.503C179.285 175.149 176.863 176.97 174.121 176.927L133.909 176.292C129.973 176.23 127.161 172.458 128.228 168.668L138.443 132.374C139.171 129.787 141.531 128 144.218 128H184.266Z" fill="white"/>
</g>
<path d="M170.824 152.707C171.215 152.317 171.215 151.683 170.824 151.293L164.46 144.929C164.07 144.538 163.437 144.538 163.046 144.929C162.656 145.319 162.656 145.953 163.046 146.343L168.703 152L163.046 157.657C162.656 158.047 162.656 158.681 163.046 159.071C163.437 159.462 164.07 159.462 164.46 159.071L170.824 152.707ZM148.117 152V153H170.117V152V151H148.117V152Z" fill="#949494"/>
<defs>
<filter id="filter0_ddd_10004_1553" x="0" y="0" width="318.27" height="304.928" filterUnits="userSpaceOnUse" color-interpolation-filters="sRGB">
<feFlood flood-opacity="0" result="BackgroundImageFix"/>
<feColorMatrix in="SourceAlpha" type="matrix" values="0 0 0 0 0 0 0 0 0 0 0 0 0 0 0 0 0 0 127 0" result="hardAlpha"/>
<feOffset/>
<feGaussianBlur stdDeviation="64"/>
<feComposite in2="hardAlpha" operator="out"/>
<feColorMatrix type="matrix" values="0 0 0 0 1 0 0 0 0 1 0 0 0 0 1 0 0 0 1 0"/>
<feBlend mode="normal" in2="BackgroundImageFix" result="effect1_dropShadow_10004_1553"/>
<feColorMatrix in="SourceAlpha" type="matrix" values="0 0 0 0 0 0 0 0 0 0 0 0 0 0 0 0 0 0 127 0" result="hardAlpha"/>
<feOffset/>
<feGaussianBlur stdDeviation="16"/>
<feComposite in2="hardAlpha" operator="out"/>
<feColorMatrix type="matrix" values="0 0 0 0 1 0 0 0 0 1 0 0 0 0 1 0 0 0 1 0"/>
<feBlend mode="normal" in2="effect1_dropShadow_10004_1553" result="effect2_dropShadow_10004_1553"/>
<feColorMatrix in="SourceAlpha" type="matrix" values="0 0 0 0 0 0 0 0 0 0 0 0 0 0 0 0 0 0 127 0" result="hardAlpha"/>
<feOffset/>
<feGaussianBlur stdDeviation="4"/>
<feComposite in2="hardAlpha" operator="out"/>
<feColorMatrix type="matrix" values="0 0 0 0 1 0 0 0 0 1 0 0 0 0 1 0 0 0 1 0"/>
<feBlend mode="normal" in2="effect2_dropShadow_10004_1553" result="effect3_dropShadow_10004_1553"/>
<feBlend mode="normal" in="SourceGraphic" in2="effect3_dropShadow_10004_1553" result="shape"/>
</filter>
</defs>
</svg>
