<svg width="718" height="244" viewBox="0 0 718 244" fill="none" xmlns="http://www.w3.org/2000/svg">
<path d="M699.198 207.027V206.904C697.481 205.678 697.359 205.801 694.416 203.348C692.453 201.509 690.491 199.179 690.491 199.179L703 160.06C700.792 162.267 697.481 165.21 693.68 167.172C689.756 169.257 686.935 170.361 685.341 170.851C689.02 173.672 690.491 180.171 690.491 181.765C690.491 183.359 690.001 190.84 685.341 195.868C674.55 207.395 663.513 207.027 663.513 207.027C661.796 205.678 661.674 205.801 658.853 203.348C656.769 201.509 654.929 199.179 654.929 199.179L670.135 151.599C670.135 151.599 677.983 156.504 680.313 158.588C681.662 159.937 681.662 160.183 681.662 161.286C681.662 164.843 671.607 188.387 666.456 200.16C668.909 199.669 674.304 198.443 677.738 196.113C683.869 191.698 687.303 184.586 687.303 181.03C687.303 173.672 681.294 172.568 681.294 172.568C681.294 172.568 681.172 169.502 681.662 169.502C681.662 169.502 689.51 166.927 694.416 163.739C699.321 160.796 705.697 151.599 705.697 151.599C705.697 151.599 713.668 156.504 715.998 158.588C717.347 159.937 717.592 160.183 717.592 161.286C717.592 164.843 707.537 188.265 702.386 200.16C702.999 199.914 703.735 199.669 704.716 199.179C707.782 197.707 712.319 194.273 712.319 194.273L713.178 195.5C713.178 195.5 711.338 199.056 707.046 202.122C703.367 205.187 700.056 206.659 699.321 206.904V207.027H699.198Z" fill="#FAFEFF"/>
<path d="M667.14 129.896C667.14 138.112 645.312 151.969 640.652 154.667C640.039 155.526 639.426 156.507 639.181 157.242C641.265 156.752 643.473 156.507 645.312 156.507C647.642 156.507 653.038 157.978 653.038 166.93C653.038 173.062 649.481 180.051 646.293 185.447C637.341 202.492 624.22 207.52 624.22 207.52L616.004 202.492C616.004 202.492 613.551 201.021 613.551 190.352C613.551 182.504 617.966 170.486 623.729 159.205C621.277 160.186 618.824 158.837 618.824 158.837L617.598 155.403C617.598 155.403 620.173 156.752 621.645 156.752C622.748 156.752 624.465 156.261 625.691 155.894C627.899 151.479 630.597 147.064 633.417 143.263C642.124 130.877 657.575 121.803 659.169 121.803C660.395 121.803 667.14 127.689 667.14 129.896ZM661.254 131.245C661.254 131.245 652.179 137.254 643.595 149.885C649.481 145.347 661.254 135.537 661.254 131.245ZM643.963 159.082C641.756 159.082 639.181 159.94 637.464 160.676C635.502 164.723 633.417 169.383 632.068 174.41L627.899 187.777C625.569 196.361 626.55 201.021 626.55 201.021C626.55 201.021 635.502 195.748 640.775 187.409C646.17 179.438 649.727 171.222 649.727 166.93C649.727 164.968 648.991 159.082 643.963 159.082Z" fill="#FAFEFF"/>
<path d="M581.836 199.42L589.807 174.281C583.185 182.252 568.101 200.401 563.687 203.344C562.583 205.797 561.97 207.269 561.97 207.269L557.065 203.467C555.103 201.75 553.018 199.42 553.018 199.42L568.469 151.718C568.469 151.718 576.317 156.746 578.647 158.953C579.874 160.057 580.119 160.302 580.119 161.405C580.119 164.594 573.497 180.536 568.224 192.798C575.95 184.95 586.741 173.3 591.891 167.66L597.042 151.718C597.042 151.718 604.767 156.746 607.22 158.953C608.691 160.057 608.691 160.302 608.691 161.405C608.691 165.207 598.758 188.506 593.608 200.279C594.344 200.156 594.957 199.911 595.938 199.42C599.249 197.826 607.956 190.468 607.956 190.468L608.691 191.695C608.691 191.695 602.437 199.175 598.145 202.241C594.712 205.184 591.523 206.655 590.542 207.146V207.269L590.42 207.146L590.297 207.269V207.023C588.948 205.797 588.58 205.797 585.637 203.467C583.553 201.75 581.836 199.42 581.836 199.42Z" fill="#FAFEFF"/>
<path d="M493.939 199.669L506.202 161.286C498.599 169.257 485.723 185.935 480.204 193.17C476.648 201.386 473.828 207.885 473.828 207.885C472.111 206.291 472.111 206.536 468.8 203.839C466.961 202.244 464.999 199.669 464.999 199.669L480.327 151.354C480.327 151.354 488.421 156.504 490.873 158.466C492.345 159.938 492.467 160.183 492.467 161.164C492.467 163.616 488.298 174.04 484.006 184.463C491.364 174.285 505.221 155.4 508.777 153.07L509.39 151.354C509.39 151.354 517.729 156.504 519.936 158.466C521.162 159.938 521.285 160.183 521.285 161.164C521.285 163.616 517.238 174.04 512.946 184.341C520.794 173.672 535.632 153.438 538.085 152.825L538.576 151.354C538.576 151.354 546.424 156.504 548.999 158.466C550.47 159.938 550.593 160.183 550.593 161.164C550.593 164.965 540.538 188.387 535.265 200.528C535.878 200.405 536.491 200.16 537.349 199.792C540.66 198.32 549.735 190.963 549.735 190.963L550.593 191.944C550.593 191.944 544.094 199.424 539.924 202.858C536.368 205.433 533.18 207.027 532.076 207.64C531.954 207.763 531.954 207.885 531.954 207.885L531.831 207.763C531.708 207.763 531.586 207.885 531.586 207.885V207.517C530.114 206.291 529.869 206.291 527.049 203.839C525.086 202.244 522.879 199.669 522.879 199.669L535.265 161.654C527.539 169.748 514.54 186.548 509.145 193.538C505.711 201.631 502.891 207.885 502.891 207.885C501.174 206.291 501.051 206.536 497.863 203.839C495.778 202.244 493.939 199.669 493.939 199.669Z" fill="#FAFEFF"/>
<path d="M444.155 207.885V207.763C442.438 206.536 442.315 206.536 439.25 204.084C437.165 202.367 435.203 199.792 435.203 199.792L440.966 182.011C434.222 191.453 420.242 207.517 417.299 207.517C415.705 207.517 408.592 203.103 406.017 200.896C405.282 200.16 404.791 193.66 404.791 188.878C404.791 161.777 430.911 151.599 439.25 151.599C441.334 151.599 445.626 157.73 447.711 160.796L450.777 151.354C450.777 151.354 458.993 156.627 461.2 158.589C462.426 159.938 462.549 160.183 462.549 161.532C462.549 165.088 452.616 188.755 447.343 200.773C448.079 200.528 448.815 200.282 449.796 199.792C452.739 198.32 461.936 190.963 461.936 190.963L462.549 192.066C462.549 192.066 456.295 199.669 452.126 202.858C448.447 205.678 445.136 207.395 444.277 207.763V207.885H444.155ZM417.667 201.386C420.365 201.386 437.533 182.011 442.928 175.757L447.343 161.9C446.362 161.532 444.768 161.164 442.07 161.164C431.156 161.164 416.931 178.454 416.931 197.339C416.931 201.386 417.667 201.386 417.667 201.386Z" fill="#FAFEFF"/>
<path d="M373.6 199.669L385.741 161.654C378.383 169.257 366.856 184.095 360.97 191.821C352.018 214.998 340.736 243.08 340.736 243.08C338.897 241.608 338.897 241.731 335.708 239.033C333.501 237.194 331.784 234.618 331.784 234.618L359.743 151.354C359.743 151.354 368.082 156.504 370.412 158.466C371.761 159.938 371.761 160.183 371.761 161.164C371.761 162.881 368.45 172.078 364.035 183.728C371.761 173.059 385.741 154.174 388.561 152.948L389.052 151.354C389.052 151.354 396.9 156.504 399.598 158.466C400.824 159.938 401.069 160.183 401.069 161.164C401.069 164.965 391.014 188.51 385.618 200.65L388.193 199.792C391.014 198.32 400.211 190.963 400.211 190.963L401.069 191.944C401.069 191.944 394.447 199.424 390.155 202.858C386.722 205.678 383.288 207.395 382.43 207.763V207.885H382.307V207.763C380.59 206.291 380.468 206.414 377.402 203.839C375.44 202.244 373.6 199.669 373.6 199.669Z" fill="#FAFEFF"/>
<path d="M333.261 151.599C336.082 151.599 342.826 162.635 342.826 162.635C342.826 162.635 341.477 161.164 336.082 161.164C325.168 161.164 310.82 178.454 310.82 197.339C310.82 201.386 311.801 201.386 311.801 201.386C311.801 201.386 314.009 201.386 316.706 199.424C340.006 185.689 340.128 162.88 340.128 162.88L341.968 163.248C341.968 163.248 341.477 189.859 319.772 202.857C314.867 205.923 311.801 207.149 311.311 207.517H311.065C309.594 207.517 302.481 203.103 300.029 200.895C299.416 200.16 299.048 193.66 299.048 188.878C299.048 161.777 325.045 151.599 333.261 151.599Z" fill="#FAFEFF"/>
<path d="M267.843 199.669L280.228 161.409C272.625 169.503 259.504 186.548 254.108 193.538C250.675 201.631 247.854 207.885 247.854 207.885C246.137 206.291 246.137 206.537 242.949 203.839C240.864 202.245 238.902 199.669 238.902 199.669L254.354 151.354C254.354 151.354 262.57 156.504 264.654 158.466C266.126 159.938 266.248 160.183 266.248 161.164C266.248 163.616 262.202 174.04 257.91 184.341C265.513 173.795 280.105 154.297 283.049 152.948L283.539 151.354C283.539 151.354 291.387 156.504 294.085 158.466C295.311 159.938 295.311 160.183 295.311 161.164C295.311 164.965 285.378 188.51 280.105 200.65L282.435 199.792C285.501 198.32 294.698 190.963 294.698 190.963L295.311 191.944C295.311 191.944 289.057 199.424 284.643 202.858C280.841 205.678 277.653 207.395 276.917 207.763V207.885H276.795V207.763C275.078 206.291 274.955 206.414 272.012 203.839C269.682 202.245 267.843 199.669 267.843 199.669Z" fill="#FAFEFF"/>
<path d="M208.938 199.669L221.078 161.654C213.72 169.257 202.193 184.095 196.307 191.821C187.355 214.998 176.073 243.08 176.073 243.08C174.234 241.608 174.234 241.731 171.046 239.033C168.838 237.194 167.122 234.618 167.122 234.618L195.081 151.354C195.081 151.354 203.42 156.504 205.75 158.466C207.098 159.938 207.098 160.183 207.098 161.164C207.098 162.881 203.787 172.078 199.373 183.728C207.098 173.059 221.078 154.174 223.898 152.948L224.389 151.354C224.389 151.354 232.237 156.504 234.935 158.466C236.161 159.938 236.407 160.183 236.407 161.164C236.407 164.965 226.351 188.51 220.955 200.65L223.531 199.792C226.351 198.32 235.548 190.963 235.548 190.963L236.407 191.944C236.407 191.944 229.785 199.424 225.493 202.858C222.059 205.678 218.625 207.395 217.767 207.763V207.885H217.644V207.763C215.928 206.291 215.805 206.414 212.739 203.839C210.777 202.244 208.938 199.669 208.938 199.669Z" fill="#FAFEFF"/>
<path d="M168.599 151.599C171.42 151.599 178.164 162.635 178.164 162.635C178.164 162.635 176.815 161.164 171.42 161.164C160.506 161.164 146.158 178.454 146.158 197.339C146.158 201.386 147.139 201.386 147.139 201.386C147.139 201.386 149.346 201.386 152.044 199.424C175.344 185.689 175.466 162.88 175.466 162.88L177.306 163.248C177.306 163.248 176.815 189.859 155.11 202.857C150.205 205.923 147.139 207.149 146.649 207.517H146.403C144.932 207.517 137.819 203.103 135.367 200.895C134.754 200.16 134.386 193.66 134.386 188.878C134.386 161.777 160.383 151.599 168.599 151.599Z" fill="#FAFEFF"/>
<path d="M112.613 207.028L96.3039 189.982C92.2571 199.179 88.7009 207.028 88.7009 207.028C86.8615 205.679 86.7388 205.801 83.7958 203.349C81.7111 201.509 79.749 199.179 79.749 199.179L95.2002 151.845C95.2002 151.845 103.294 156.995 105.501 159.08C106.85 160.183 107.218 160.674 107.218 161.778C107.218 163.617 104.52 170.484 101.332 178.333C109.18 168.522 119.848 155.646 123.037 153.562L123.65 151.845C123.65 151.845 130.885 156.505 133.092 158.589C134.441 159.816 134.441 160.061 134.441 160.919C134.441 165.334 125.489 178.333 125.489 178.333C123.895 177.106 123.773 177.229 120.952 174.776C119.113 172.937 117.396 170.73 117.396 170.73L120.094 162.636C115.679 167.296 109.548 174.163 103.907 180.54L106.482 183.483C106.482 183.483 116.415 195.623 119.358 198.444C123.282 196.114 130.149 190.228 130.149 190.228L130.885 191.576C130.885 191.576 124.754 199.057 120.462 202.123C116.292 205.556 112.613 207.028 112.613 207.028Z" fill="#FAFEFF"/>
<path d="M516.309 84.5102C516.309 84.5102 507.112 97.3862 500.245 101.678C495.217 104.744 488.227 108.178 484.917 109.649C484.181 112.715 483.813 116.026 483.813 119.214C483.813 123.261 484.917 123.261 484.917 123.261C484.917 123.261 487.001 122.77 489.944 121.299C493.255 120.073 502.207 112.592 502.207 112.592L502.943 113.696C502.943 113.696 496.811 121.054 492.397 124.365C488.595 127.308 484.917 129.024 484.303 129.392C482.587 129.392 475.842 124.978 473.022 122.77C472.408 122.035 472.041 115.535 472.041 110.753C472.041 83.6518 498.038 73.4736 506.376 73.4736C509.442 73.4736 516.309 84.5102 516.309 84.5102ZM509.442 83.0387C500.858 83.0387 490.312 93.0942 485.898 106.338C488.963 104.621 495.708 100.575 499.019 97.7541C502.207 94.9337 508.093 85.9818 509.933 83.0387H509.442Z" fill="#FAFEFF"/>
<path d="M441.552 121.294L449.522 96.1546C442.9 104.126 427.817 122.275 423.403 125.218C422.299 127.67 421.686 129.142 421.686 129.142L416.781 125.34C414.819 123.623 412.734 121.294 412.734 121.294L428.185 73.5909C428.185 73.5909 436.033 78.6187 438.363 80.826C439.589 81.9297 439.835 82.175 439.835 83.2786C439.835 86.467 433.213 102.409 427.94 114.672C435.665 106.823 446.457 95.1736 451.607 89.5327L456.757 73.5909C456.757 73.5909 464.483 78.6187 466.936 80.826C468.407 81.9297 468.407 82.175 468.407 83.2786C468.407 87.0801 458.474 110.38 453.324 122.152C454.06 122.029 454.673 121.784 455.654 121.294C458.965 119.699 467.671 112.342 467.671 112.342L468.407 113.568C468.407 113.568 462.153 121.048 457.861 124.114C454.428 127.057 451.239 128.529 450.258 129.019V129.142L450.136 129.019L450.013 129.142V128.897C448.664 127.67 448.296 127.67 445.353 125.34C443.268 123.623 441.552 121.294 441.552 121.294Z" fill="#FAFEFF"/>
<path d="M383.468 121.294L390.09 100.324L385.675 101.428C382.977 101.918 376.969 104.248 373.78 105.597C368.875 117.369 363.602 129.142 363.602 129.142C361.885 127.67 361.885 127.793 358.697 125.34C356.735 123.623 354.773 121.294 354.773 121.294L370.101 73.5909C370.101 73.5909 377.95 78.6187 380.28 80.826C381.629 81.9297 381.874 82.175 381.874 83.2786C381.874 85.2407 379.176 92.4758 375.865 100.569C379.421 99.4656 384.817 98.1167 390.948 97.8714L398.674 73.5909C398.674 73.5909 406.522 78.6187 408.852 80.826C410.324 81.9297 410.324 82.175 410.324 83.2786C410.324 87.0801 400.391 110.38 395.118 122.152C395.853 122.029 396.589 121.661 397.448 121.294C400.759 119.699 409.465 112.342 409.465 112.342L410.324 113.568C410.324 113.568 404.315 121.048 399.9 124.114C395.731 127.548 391.929 129.142 391.929 129.142V129.019C390.213 127.67 390.09 127.793 387.024 125.34C385.43 123.623 383.468 121.294 383.468 121.294Z" fill="#FAFEFF"/>
<path d="M339.073 114.799C338.337 116.27 337.602 118.11 336.989 120.072C340.545 118.232 347.903 113.818 352.317 113.818C352.317 113.818 351.827 115.902 351.213 116.761C351.213 116.761 337.356 122.892 335.149 124.241L325.339 146.927C319.33 159.313 308.539 173.17 307.067 174.028C305.35 174.642 302.653 173.783 300.936 173.415C298.851 173.047 296.031 172.679 294.927 171.821C293.946 170.595 293.578 167.652 293.578 163.728C293.578 159.803 293.578 151.342 305.841 140.06C309.642 136.627 314.67 133.07 320.066 129.882C322.641 122.892 324.848 117.374 325.707 114.553L328.772 105.234C321.66 114.799 309.029 129.392 306.331 129.392C304.615 129.392 297.502 124.977 295.05 122.77C294.314 122.034 293.578 115.534 293.578 110.752C293.578 83.651 320.066 73.4728 328.282 73.4728C330.244 73.4728 334.168 78.8685 336.253 82.0568L339.196 73.2275C339.196 73.2275 347.167 78.3779 349.374 80.34C350.846 81.8116 350.846 82.0568 350.846 83.0378C350.846 86.1036 344.346 102.413 339.073 114.799ZM306.699 123.26C309.152 123.26 324.48 106.092 330.857 98.8569L335.762 83.651C334.781 83.2831 333.432 83.0378 331.225 83.0378C320.188 83.0378 305.964 100.328 305.964 119.213C305.964 123.26 306.699 123.26 306.699 123.26ZM299.096 167.774C303.266 167.774 311.237 150.361 317.613 135.4C313.076 139.079 309.888 142.513 306.454 146.192C298.483 153.917 298.729 165.322 298.729 165.69C298.729 166.057 298.729 167.774 299.096 167.774Z" fill="#FAFEFF"/>
<path d="M282.793 73.4736C285.614 73.4736 292.358 84.5102 292.358 84.5102C292.358 84.5102 291.009 83.0387 285.614 83.0387C274.7 83.0387 260.352 100.329 260.352 119.214C260.352 123.261 261.333 123.261 261.333 123.261C261.333 123.261 263.541 123.261 266.239 121.299C289.538 107.564 289.661 84.7555 289.661 84.7555L291.5 85.1234C291.5 85.1234 291.009 111.734 269.304 124.732C264.399 127.798 261.333 129.024 260.843 129.392H260.598C259.126 129.392 252.014 124.978 249.561 122.77C248.948 122.035 248.58 115.535 248.58 110.753C248.58 83.6518 274.577 73.4736 282.793 73.4736Z" fill="#FAFEFF"/>
<path d="M225.128 129.271V128.903C223.779 127.799 223.411 127.799 220.468 125.469C218.629 123.752 216.666 121.545 216.666 121.545L229.665 80.7096L226.599 81.8132C223.656 83.2848 215.072 90.8877 215.072 90.8877L214.091 89.5388C214.091 89.5388 220.223 82.1811 224.147 78.8701C227.703 76.0497 230.891 74.3329 231.75 73.8424L231.872 73.7197V73.8424C231.995 73.7197 232.118 73.7197 232.118 73.7197V73.8424C233.221 74.5781 240.089 79.1154 242.296 80.9548C243.645 82.0585 243.645 82.549 243.645 83.6527C243.645 87.2089 233.589 110.754 228.439 122.526C229.175 122.281 229.91 122.035 231.014 121.545C234.08 119.951 242.909 112.593 242.909 112.593L243.645 113.697C243.645 113.697 237.513 121.3 233.099 124.365C229.665 127.063 226.722 128.535 225.618 129.025C225.496 129.148 225.496 129.271 225.496 129.271L225.373 129.148C225.25 129.148 225.128 129.271 225.128 129.271Z" fill="#FAFEFF"/>
<path d="M202.079 73.4736C204.899 73.4736 211.644 84.5102 211.644 84.5102C211.644 84.5102 210.295 83.0387 204.899 83.0387C193.986 83.0387 179.638 100.329 179.638 119.214C179.638 123.261 180.619 123.261 180.619 123.261C180.619 123.261 182.826 123.261 185.524 121.299C208.824 107.564 208.946 84.7555 208.946 84.7555L210.786 85.1234C210.786 85.1234 210.295 111.734 188.59 124.732C183.685 127.798 180.619 129.024 180.129 129.392H179.883C178.412 129.392 171.299 124.978 168.847 122.77C168.234 122.035 167.866 115.535 167.866 110.753C167.866 83.6518 193.863 73.4736 202.079 73.4736Z" fill="#FAFEFF"/>
<path d="M178.849 51.7605C178.849 59.9766 157.021 73.8337 152.361 76.5315C151.748 77.3899 151.135 78.3709 150.89 79.1067C152.974 78.6162 155.182 78.3709 157.021 78.3709C159.351 78.3709 164.747 79.8425 164.747 88.7944C164.747 94.9258 161.19 101.916 158.002 107.311C149.05 124.357 135.929 129.384 135.929 129.384L127.713 124.357C127.713 124.357 125.26 122.885 125.26 112.216C125.26 104.368 129.675 92.3506 135.438 81.0688C132.986 82.0498 130.533 80.7009 130.533 80.7009L129.307 77.2673C129.307 77.2673 131.882 78.6162 133.354 78.6162C134.457 78.6162 136.174 78.1257 137.4 77.7578C139.608 73.3432 142.306 68.9285 145.126 65.127C153.833 52.7415 169.284 43.667 170.878 43.667C172.104 43.667 178.849 49.5532 178.849 51.7605ZM172.963 53.1094C172.963 53.1094 163.888 59.1182 155.304 71.749C161.19 67.2117 172.963 57.4014 172.963 53.1094ZM155.672 80.9461C153.465 80.9461 150.89 81.8045 149.173 82.5403C147.211 86.5871 145.126 91.247 143.777 96.2747L139.608 109.641C137.278 118.225 138.259 122.885 138.259 122.885C138.259 122.885 147.211 117.612 152.484 109.273C157.879 101.303 161.436 93.0864 161.436 88.7944C161.436 86.8323 160.7 80.9461 155.672 80.9461Z" fill="#FAFEFF"/>
<path d="M112.024 73.4736C114.845 73.4736 121.589 84.5102 121.589 84.5102C121.589 84.5102 120.24 83.0387 114.845 83.0387C103.931 83.0387 89.5834 100.329 89.5834 119.214C89.5834 123.261 90.5644 123.261 90.5644 123.261C90.5644 123.261 92.7717 123.261 95.4695 121.299C118.769 107.564 118.892 84.7555 118.892 84.7555L120.731 85.1234C120.731 85.1234 120.24 111.734 98.5352 124.732C93.6301 127.798 90.5644 129.024 90.0739 129.392H89.8286C88.3571 129.392 81.2446 124.978 78.7921 122.77C78.1789 122.035 77.811 115.535 77.811 110.753C77.811 83.6518 103.808 73.4736 112.024 73.4736Z" fill="#FAFEFF"/>
<path d="M50.2698 119.521L70.3374 56.6057C67.4448 57.1481 63.6482 57.8713 59.6709 58.7752C53.524 60.0407 39.2416 65.826 31.8292 69.0803C20.2587 99.6339 7.60339 131.634 7.60339 131.634C4.89155 129.645 11.2556 131.251 6.37427 127.093C3.30084 124.381 0.408203 120.765 0.408203 120.765L38.5549 1.62443C38.5549 1.62443 44.4845 8.33467 48.1003 11.5889C50.089 13.3968 50.2698 13.9392 50.2698 15.5663C50.2698 18.4589 43.7613 36.538 35.9874 57.5097C43.9421 54.617 57.1398 51.0012 72.3261 50.6396L88.4164 0.379883C88.4164 0.379883 92.3938 5.6995 96.0096 8.95373C97.9983 10.7616 98.3599 11.304 98.3599 12.9311C98.3599 20.5243 55.5127 128.999 55.5127 128.999C52.8008 127.01 48.1003 123.213 48.1003 123.213C45.0269 120.501 50.2698 119.521 50.2698 119.521Z" fill="#FAFEFF"/>
</svg>
