<svg width="25" height="24" viewBox="0 0 25 24" fill="none" xmlns="http://www.w3.org/2000/svg">
<path fill-rule="evenodd" clip-rule="evenodd" d="M11.0401 8.33802C11.5582 7.63981 11.744 6.90396 11.158 6.25443C9.84308 4.41445 8.95874 3.27662 8.40404 2.72866C7.34948 1.68693 5.61471 1.82784 4.70138 2.72777C4.21083 3.21113 4.04476 3.37712 3.54106 3.88873C0.735409 6.69589 2.44644 12.6301 6.99498 17.1831C11.5425 21.7351 17.4762 23.4471 20.2877 20.634C20.7525 20.1859 21.146 19.7921 21.4564 19.4641C22.3514 18.5181 22.4873 16.8598 21.4505 15.7825C20.9189 15.2302 19.8339 14.3886 17.9165 13.0171C17.3293 12.492 16.633 12.6058 15.9946 13.0246C15.6876 13.226 15.4641 13.4298 15.0421 13.8522L14.2759 14.6188C14.175 14.7198 12.8046 14.0335 11.4743 12.702C10.1433 11.3697 9.45749 9.99918 9.55794 9.89874L10.3247 9.13155C10.4586 8.99754 10.5226 8.93266 10.6047 8.84639C10.7757 8.66666 10.9173 8.50356 11.0401 8.33802ZM15.6893 16.0331L16.4557 15.2662C16.688 15.0338 16.8385 14.8909 16.9609 14.7923C18.6406 15.9985 19.6133 16.757 20.0107 17.1698C20.2492 17.4177 20.2121 17.87 20.0048 18.0892C19.7178 18.3925 19.3449 18.7656 18.8873 19.2069C17.0693 21.0257 12.2795 19.6438 8.40872 15.7692C4.53674 11.8934 3.15548 7.10291 4.95979 5.29761C5.46145 4.7881 5.6204 4.62924 6.10395 4.15278C6.28525 3.97413 6.77911 3.93401 6.99967 4.15189C7.42674 4.57376 8.21893 5.58811 9.3843 7.21145C9.32397 7.28635 9.24862 7.37099 9.15693 7.46737C9.08962 7.5381 9.03355 7.59494 8.91097 7.71764L8.14495 8.48408C6.8418 9.78712 7.95161 12.0048 10.0606 14.1159C12.1681 16.2254 14.3866 17.3365 15.6893 16.0331Z" fill="#3F826D"/>
</svg>
