<svg width="30" height="19" viewBox="0 0 30 19" fill="none" xmlns="http://www.w3.org/2000/svg">
<path d="M14.9948 0.446899H9.8242L4.03309 7.0653V0.446899H0V18.3373H4.03309V10.7882L10.031 18.3373H15.3051L7.44571 8.71991L14.9948 0.446899Z" fill="#5CC3DE"/>
<path d="M27.715 1.89467C26.3706 0.757135 24.9229 0.446899 22.958 0.446899H17.5806V18.2339H21.6137V11.9257H23.3717C25.3365 11.9257 26.8877 11.4086 27.9218 10.2711C29.2662 8.92673 29.473 7.16872 29.473 6.238C29.5764 5.20388 29.3696 3.34245 27.715 1.89467ZM21.7171 4.06634H22.5444C23.2683 4.06634 24.0956 4.06634 24.716 4.5834C25.0263 4.79023 25.5433 5.30729 25.5433 6.238C25.5433 6.96189 25.2331 7.58237 24.716 7.99602C24.0956 8.51308 23.3717 8.51308 22.7512 8.51308H21.7171V4.06634Z" fill="#5CC3DE"/>
</svg>
