<svg width="278" height="49" viewBox="0 0 278 49" fill="none" xmlns="http://www.w3.org/2000/svg">
<path d="M259.398 28.5302C259.398 28.5302 258.422 28.5302 256.472 28.5302C254.521 28.5302 251.908 28.5302 248.634 28.5302C245.359 28.5302 241.736 28.5651 237.765 28.6347V48.2819H229.718V5.64335C229.718 3.62289 230.136 2.22947 230.972 1.46309C231.878 0.696713 233.341 0.278686 235.361 0.209016C236.406 0.139344 237.765 0.104508 239.437 0.104508C241.179 0.104508 243.095 0.104508 245.185 0.104508C247.275 0.0348378 249.4 0 251.56 0C253.789 0 255.914 0 257.935 0C260.025 0 261.871 0.0348378 263.474 0.104508C265.076 0.17418 266.33 0.243848 267.236 0.313518C270.859 0.661872 273.506 1.88112 275.178 3.97124C276.85 5.9917 277.686 9.02238 277.686 13.0633C277.686 16.2682 277.234 18.8111 276.328 20.6923C275.492 22.5734 274.203 23.9668 272.461 24.8725C272.252 25.0815 271.904 25.2557 271.416 25.395C270.998 25.4647 270.545 25.4996 270.058 25.4996V25.7086C270.336 25.7086 270.65 25.7086 270.998 25.7086C271.346 25.7086 271.625 25.7086 271.834 25.7086C274.482 26.1963 276.084 27.2762 276.641 28.9483C277.199 30.5507 277.477 32.188 277.477 33.8601V45.7738C277.477 46.4705 277.547 47.0627 277.686 47.5504C277.826 47.9684 277.93 48.2123 278 48.2819H272.357C271.381 48.2819 270.615 48.1078 270.058 47.7594C269.5 47.4111 269.221 46.575 269.221 45.2513V34.1736C269.221 32.0138 268.734 30.5507 267.758 29.7843C266.853 28.9483 265.215 28.5302 262.847 28.5302H259.398ZM237.765 24.141C238.74 24.141 240.273 24.1758 242.363 24.2455C244.453 24.2455 246.718 24.2455 249.156 24.2455C251.664 24.2455 253.964 24.2455 256.054 24.2455C258.144 24.2455 259.677 24.2455 260.652 24.2455C262.951 24.2455 264.972 23.5488 266.713 22.1554C268.525 20.6923 269.43 18.0099 269.43 14.1084C269.43 11.4609 268.908 9.37074 267.863 7.83798C266.887 6.23555 265.285 5.29499 263.056 5.01631C261.593 4.80729 259.781 4.70279 257.621 4.70279C255.461 4.63312 253.232 4.63312 250.933 4.70279C248.634 4.70279 246.509 4.73762 244.558 4.8073C242.607 4.8073 241.144 4.8073 240.169 4.8073C239.96 4.8073 239.507 4.94663 238.81 5.22532C238.113 5.43433 237.765 6.13104 237.765 7.31545V24.141Z" fill="white"/>
<path d="M173.293 48.2819V3.55322C173.293 2.29914 173.467 1.42826 173.815 0.940559C174.164 0.452863 174.93 0.209015 176.114 0.209015H217.603V4.80729H181.34V20.7968H214.573V25.395H181.34V43.6837H217.603V48.2819H173.293Z" fill="white"/>
<path d="M114.292 48.282C114.292 41.2452 114.292 34.2084 114.292 27.1717C114.292 20.1349 114.292 13.133 114.292 6.16589C114.292 3.79708 114.71 2.22949 115.546 1.46311C116.451 0.696728 117.915 0.278701 119.935 0.209031C122.652 0.139358 125.648 0.104523 128.923 0.104523C132.267 0.104523 135.576 0.104523 138.851 0.104523C142.195 0.104523 145.121 0.174191 147.629 0.313533C150.486 0.452875 152.889 1.04508 154.84 2.09014C156.861 3.06554 158.358 4.56346 159.334 6.58392C160.379 8.5347 160.901 11.0429 160.901 14.1084C160.901 17.5919 160.274 20.4833 159.02 22.7824C157.836 25.0815 156.129 26.7536 153.9 27.7987C151.74 28.8438 149.127 29.3663 146.062 29.3663C142.578 29.3663 138.99 29.3663 135.297 29.3663C131.675 29.3663 128.052 29.3663 124.429 29.3663C124.429 28.1819 124.429 27.2762 124.429 26.6491C124.498 26.0221 124.638 25.5692 124.847 25.2906C125.125 25.0119 125.578 24.8725 126.205 24.8725C127.32 24.8725 128.853 24.8725 130.804 24.8725C132.824 24.8725 134.949 24.8725 137.179 24.8725C139.408 24.8725 141.428 24.8725 143.24 24.8725C144.912 24.8725 146.445 24.559 147.838 23.932C149.301 23.3049 150.451 22.1902 151.287 20.5878C152.193 18.9853 152.645 16.7907 152.645 14.0039C152.645 11.2867 152.088 9.16174 150.973 7.62898C149.859 6.02655 148.012 5.15566 145.435 5.01632C143.275 4.80731 140.871 4.7028 138.224 4.7028C135.576 4.63313 133.068 4.63313 130.699 4.7028C128.4 4.7028 126.449 4.73764 124.847 4.80731C124.498 4.80731 123.976 4.98149 123.279 5.32984C122.652 5.60853 122.339 6.2704 122.339 7.31546C122.339 14.1432 122.339 20.971 122.339 27.7987C122.339 34.5568 122.339 41.3845 122.339 48.282H114.292Z" fill="white"/>
<path d="M77.2351 48.2819V28.7393L59.5736 2.82167L57.6924 0.209015H68.3521L82.983 23.0959L97.8229 0.209015H105.138L102.839 3.13519L85.1776 28.7393V44.6242C85.2473 45.5299 85.1776 46.2615 84.9686 46.8188C84.7596 47.3065 84.4112 47.6897 83.9235 47.9684C83.4358 48.1774 82.6695 48.2819 81.6244 48.2819H77.2351Z" fill="white"/>
<path d="M3.05176e-05 48.2819V3.2397C3.05176e-05 1.91595 0.209043 1.0799 0.627069 0.731549C1.11477 0.383194 1.91598 0.209015 3.03071 0.209015H8.04702V21.1103H39.7125V0.209015H47.7594V45.0422C47.7594 46.366 47.5853 47.2369 47.2369 47.6549C46.8886 48.0729 46.0525 48.2819 44.7288 48.2819H39.7125V25.8131H8.04702V48.2819H3.05176e-05Z" fill="white"/>
</svg>
