<svg width="41" height="41" viewBox="0 0 41 41" fill="none" xmlns="http://www.w3.org/2000/svg">
<path d="M0 20C0 8.95431 8.95431 0 20 0H21C32.0457 0 41 8.95431 41 20V21C41 32.0457 32.0457 41 21 41H0V20Z" fill="#FDC739"/>
<path d="M16.7838 14V21.5H21.5405C27.4865 21.5 27.4865 14 21.5405 14H16.7838Z" fill="#FDC739"/>
<path d="M20.9459 24.9615H15M16.7838 29V21.5M16.7838 21.5V14M16.7838 21.5H15M16.7838 21.5H21.5405C27.4865 21.5 27.4865 14 21.5405 14H16.7838M16.7838 14H15" stroke="white" stroke-width="2" stroke-linecap="round" stroke-linejoin="round"/>
</svg>
