<svg width="42" height="41" viewBox="0 0 42 41" fill="none" xmlns="http://www.w3.org/2000/svg">
<path d="M0.333496 20C0.333496 8.95431 9.2878 0 20.3335 0H21.3335C32.3792 0 41.3335 8.95431 41.3335 20V21C41.3335 32.0457 32.3792 41 21.3335 41H0.333496V20Z" fill="#FDC739"/>
<path d="M10.6785 12.9187L22.0344 15.6359L25.5425 12.1278C25.5425 12.1278 27.6383 10.0414 29.1239 11.527C30.6095 13.0127 28.4399 15.0252 28.4399 15.0252L24.9318 18.5333L27.649 29.8892L26.0439 31.4944L21.7721 21.6931L16.487 26.6772L17.1083 29.6682L15.9234 30.8531L13.7151 27.0874L9.71462 24.6444L10.8995 23.4595L13.9185 24.1087L18.8747 18.7956L9.07332 14.5238L10.6785 12.9187Z" fill="white"/>
</svg>
