<svg width="42" height="41" viewBox="0 0 42 41" fill="none" xmlns="http://www.w3.org/2000/svg">
<path d="M0.666504 20C0.666504 8.95431 9.62081 0 20.6665 0H21.6665C32.7122 0 41.6665 8.95431 41.6665 20V21C41.6665 32.0457 32.7122 41 21.6665 41H0.666504V20Z" fill="#FDC739"/>
<path d="M7.6665 27.5384V14.4616C7.6665 13.1021 8.65596 12 9.87652 12H31.4565C32.677 12 33.6665 13.1021 33.6665 14.4616V27.5384C33.6665 28.8979 32.677 30 31.4565 30H9.87652C8.65596 30 7.6665 28.8979 7.6665 27.5384Z" fill="#FDC739"/>
<path d="M9.87652 22.459C9.32424 22.459 8.87652 22.9068 8.87652 23.459C8.87652 24.0113 9.32424 24.459 9.87652 24.459V22.459ZM16.9104 24.459C17.4627 24.459 17.9104 24.0113 17.9104 23.459C17.9104 22.9068 17.4627 22.459 16.9104 22.459V24.459ZM6.6665 14.4616V27.5384H8.6665V14.4616H6.6665ZM9.87652 31H31.4565V29H9.87652V31ZM34.6665 27.5384V14.4616H32.6665V27.5384H34.6665ZM31.4565 11H9.87652V13H31.4565V11ZM34.6665 14.4616C34.6665 12.654 33.328 11 31.4565 11V13C32.0261 13 32.6665 13.5503 32.6665 14.4616H34.6665ZM31.4565 31C33.328 31 34.6665 29.346 34.6665 27.5384H32.6665C32.6665 28.4497 32.0261 29 31.4565 29V31ZM6.6665 27.5384C6.6665 29.346 8.00499 31 9.87652 31V29C9.30693 29 8.6665 28.4497 8.6665 27.5384H6.6665ZM8.6665 14.4616C8.6665 13.5503 9.30693 13 9.87652 13V11C8.00499 11 6.6665 12.654 6.6665 14.4616H8.6665ZM7.6665 17.7266H33.6047V15.7266H7.6665V17.7266ZM7.6665 21.2088H33.6047V19.2088H7.6665V21.2088ZM9.87652 24.459H16.9104V22.459H9.87652V24.459Z" fill="white"/>
</svg>
