<svg width="41" height="41" viewBox="0 0 41 41" fill="none" xmlns="http://www.w3.org/2000/svg">
<path d="M0 20C0 8.95431 8.95431 0 20 0H21C32.0457 0 41 8.95431 41 20V21C41 32.0457 32.0457 41 21 41H0V20Z" fill="#FDC739"/>
<path d="M11.7244 15.8182L14.1854 23.554H14.2798L16.7457 15.8182H19.1321L15.6222 26H12.848L9.3331 15.8182H11.7244ZM22.5103 15.8182V26H20.3576V15.8182H22.5103ZM24.2814 26V15.8182H28.2985C29.0707 15.8182 29.7286 15.9657 30.2722 16.2607C30.8158 16.5523 31.2301 16.9583 31.5151 17.4787C31.8034 17.9957 31.9476 18.5923 31.9476 19.2685C31.9476 19.9446 31.8018 20.5412 31.5101 21.0582C31.2185 21.5753 30.7959 21.978 30.2424 22.2663C29.6922 22.5547 29.026 22.6989 28.2438 22.6989H25.6834V20.9737H27.8958C28.3101 20.9737 28.6515 20.9025 28.9199 20.7599C29.1917 20.6141 29.3939 20.4136 29.5265 20.1584C29.6623 19.8999 29.7303 19.6032 29.7303 19.2685C29.7303 18.9304 29.6623 18.6354 29.5265 18.3835C29.3939 18.1283 29.1917 17.9311 28.9199 17.7919C28.6481 17.6494 28.3034 17.5781 27.8858 17.5781H26.4341V26H24.2814Z" fill="white"/>
</svg>
