<svg width="41" height="41" viewBox="0 0 41 41" fill="none" xmlns="http://www.w3.org/2000/svg">
<path d="M0 20C0 8.95431 8.95431 0 20 0H21C32.0457 0 41 8.95431 41 20V21C41 32.0457 32.0457 41 21 41H0V20Z" fill="#FDC739"/>
<path d="M20.3332 30.1088C20.5526 29.3838 20.8296 29.0866 21.6633 28.7901C22.4679 29.0552 22.8191 29.3126 22.9933 30.1088C24.4563 31.0144 28.6562 27.8971 29.6436 24.834V21.3176V17.8011C29.6436 12.0868 26.5401 8.57031 20.3332 8.57031C14.1263 8.57031 11.0229 12.0868 11.0229 17.8011V21.3176V24.834C8.36277 24.834 7.47607 23.5154 7.47607 21.3176C7.47607 19.1198 8.36277 17.8011 11.0229 17.8011C11.0229 12.0868 14.1263 8.57031 20.3332 8.57031C26.5401 8.57031 29.6436 12.0868 29.6436 17.8011C32.3037 17.8011 33.1904 19.1198 33.1904 21.3176C33.1904 23.5154 31.8603 24.834 29.6436 24.834C28.6562 27.8971 24.4563 31.0144 22.9933 30.1088L22.992 30.1145C22.8526 30.7461 22.7524 31.1996 21.6633 31.4275C20.9694 31.2108 20.643 30.9837 20.3332 30.1088Z" fill="#FDC739"/>
<path d="M22.9933 30.1088C22.8532 30.7434 22.7557 31.1989 21.6633 31.4275C20.9694 31.2108 20.643 30.9837 20.3332 30.1088C20.5526 29.3838 20.8296 29.0866 21.6633 28.7901C22.4679 29.0552 22.8191 29.3126 22.9933 30.1088ZM22.9933 30.1088C24.4563 31.0144 28.6562 27.8971 29.6436 24.834M29.6436 24.834C29.6436 23.4608 29.6436 21.3176 29.6436 21.3176V17.8011M29.6436 24.834C31.8603 24.834 33.1904 23.5154 33.1904 21.3176C33.1904 19.1198 32.3037 17.8011 29.6436 17.8011M29.6436 17.8011C29.6436 12.0868 26.5401 8.57031 20.3332 8.57031C14.1263 8.57031 11.0229 12.0868 11.0229 17.8011M11.0229 17.8011C8.36277 17.8011 7.47607 19.1198 7.47607 21.3176C7.47607 23.5154 8.36277 24.834 11.0229 24.834C11.0229 24.834 11.0229 23.2597 11.0229 21.3176C11.0229 19.3755 11.0229 17.8011 11.0229 17.8011Z" stroke="white" stroke-width="2"/>
</svg>
