<svg width="42" height="41" viewBox="0 0 42 41" fill="none" xmlns="http://www.w3.org/2000/svg">
<path d="M0.666992 20C0.666992 8.95431 9.6213 0 20.667 0H21.667C32.7127 0 41.667 8.95431 41.667 20V21C41.667 32.0457 32.7127 41 21.667 41H0.666992V20Z" fill="#FDC739"/>
<path d="M22.7779 29.9084H11.5557C10.4511 29.9084 9.55566 29.013 9.55566 27.9084V14.0195C9.55566 12.915 10.4511 12.0195 11.5557 12.0195H30.889C31.9936 12.0195 32.889 12.915 32.889 14.0195V20.5751M11.889 15.9084H27.4446M11.889 19.0195H21.2223M11.889 25.2418H21.2223M11.889 22.1306H21.2223M26.6668 29.9084V34.5751L28.2223 33.0195L29.7779 34.5751V29.9084" stroke="white" stroke-width="2"/>
<path d="M32.889 26.0221C32.889 28.5995 30.7997 30.6888 28.2223 30.6888C25.645 30.6888 23.5557 28.5995 23.5557 26.0221C23.5557 23.4448 25.645 21.3555 28.2223 21.3555C30.7997 21.3555 32.889 23.4448 32.889 26.0221Z" stroke="white" stroke-width="2" stroke-linecap="round"/>
<path d="M29.7781 26.0204C29.7781 26.8795 29.0817 27.576 28.2225 27.576C27.3634 27.576 26.667 26.8795 26.667 26.0204C26.667 25.1613 27.3634 24.4648 28.2225 24.4648C29.0817 24.4648 29.7781 25.1613 29.7781 26.0204Z" stroke="white" stroke-width="2" stroke-linecap="round"/>
</svg>
