<svg width="24" height="24" viewBox="0 0 24 24" fill="none" xmlns="http://www.w3.org/2000/svg">
<g clip-path="url(#clip0)">
<path d="M11.9983 23.9966C18.6248 23.9966 23.9966 18.6248 23.9966 11.9983C23.9966 5.37183 18.6248 0 11.9983 0C5.37183 0 0 5.37183 0 11.9983C0 18.6248 5.37183 23.9966 11.9983 23.9966Z" fill="#34E0A1"/>
<path d="M12 0C6.975 0 5.55 0 5.25 0C4.2 0.15 3.6 0.3 2.85 0.6C2.325 0.9 1.95 1.2 1.5 1.65C0.75 2.4 0.3 3.375 0.075 4.575C0 5.1 0 5.25 0 8.1C0 9.075 0 10.275 0 12C0 17.025 0 18.45 0 18.75C0.075 19.725 0.225 20.4 0.6 21.075C1.2 22.425 2.475 23.4 3.9 23.775C4.425 23.925 4.95 24 5.625 24C5.925 24 8.925 24 12 24C15 24 18.075 24 18.375 24C19.2 23.925 19.65 23.925 20.175 23.775C20.85 23.625 21.525 23.25 22.125 22.8C22.725 22.35 23.175 21.75 23.475 21.075C23.775 20.4 24 19.725 24.075 18.825C24.075 18.6 24.075 15.3 24.075 12C24.075 8.7 24.075 5.4 24.075 5.25C24 4.275 23.85 3.675 23.475 2.925C23.175 2.4 22.875 1.95 22.425 1.5C21.6 0.75 20.625 0.3 19.5 0.15C18.9 0 18.75 0 15.9 0H12Z" fill="url(#paint0_radial)"/>
<path d="M12 0C6.975 0 5.55 0 5.25 0C4.2 0.15 3.6 0.3 2.85 0.6C2.325 0.9 1.95 1.2 1.5 1.65C0.75 2.4 0.3 3.375 0.075 4.575C0 5.1 0 5.25 0 8.1C0 9.075 0 10.275 0 12C0 17.025 0 18.45 0 18.75C0.075 19.725 0.225 20.4 0.6 21.075C1.2 22.425 2.475 23.4 3.9 23.775C4.425 23.925 4.95 24 5.625 24C5.925 24 8.925 24 12 24C15 24 18.075 24 18.375 24C19.2 23.925 19.65 23.925 20.175 23.775C20.85 23.625 21.525 23.25 22.125 22.8C22.725 22.35 23.175 21.75 23.475 21.075C23.775 20.4 24 19.725 24.075 18.825C24.075 18.6 24.075 15.3 24.075 12C24.075 8.7 24.075 5.4 24.075 5.25C24 4.275 23.85 3.675 23.475 2.925C23.175 2.4 22.875 1.95 22.425 1.5C21.6 0.75 20.625 0.3 19.5 0.15C18.9 0 18.75 0 15.9 0H12Z" fill="url(#paint1_radial)"/>
<path d="M12 3.14999C9.59999 3.14999 9.29999 3.14999 8.32499 3.22499C7.42499 3.22499 6.74999 3.37499 6.22499 3.59999C5.62499 3.82499 5.09999 4.12499 4.64999 4.64999C4.12499 5.09999 3.82499 5.62499 3.59999 6.22499C3.37499 6.74999 3.22499 7.42499 3.22499 8.32499C3.14999 9.29999 3.14999 9.59999 3.14999 12C3.14999 14.4 3.14999 14.7 3.22499 15.675C3.29999 16.65 3.44999 17.25 3.59999 17.85C3.82499 18.45 4.12499 18.9 4.64999 19.425C5.17499 19.95 5.62499 20.25 6.22499 20.475C6.82499 20.7 7.42499 20.85 8.39999 20.85C9.37499 20.925 9.67499 20.925 12.075 20.925C14.475 20.925 14.775 20.925 15.75 20.85C16.725 20.775 17.325 20.625 17.925 20.475C18.525 20.25 18.975 19.95 19.5 19.425C20.025 18.9 20.325 18.45 20.55 17.85C20.775 17.25 20.925 16.65 20.925 15.675C21 14.7 21 14.4 21 12C21 9.59999 21 9.29999 20.925 8.32499C20.85 7.34999 20.7 6.74999 20.55 6.14999C20.325 5.54999 20.025 5.09999 19.5 4.57499C18.975 4.04999 18.525 3.74999 17.925 3.52499C17.325 3.29999 16.725 3.14999 15.75 3.14999C14.7 3.14999 14.4 3.14999 12 3.14999ZM11.175 4.72499C11.4 4.72499 11.7 4.72499 12 4.72499C14.4 4.72499 14.625 4.72499 15.6 4.79999C16.5 4.87499 16.95 4.94999 17.25 5.09999C17.7 5.24999 17.925 5.47499 18.3 5.77499C18.525 6.07499 18.75 6.37499 18.9 6.74999C19.05 7.04999 19.2 7.49999 19.2 8.39999C19.275 9.29999 19.275 9.59999 19.275 12C19.275 14.325 19.275 14.625 19.2 15.6C19.125 16.5 19.05 16.95 18.9 17.25C18.75 17.7 18.525 17.925 18.225 18.3C17.925 18.6 17.625 18.825 17.175 18.975C16.875 19.125 16.425 19.275 15.525 19.275C14.625 19.35 14.325 19.35 11.925 19.35C9.52499 19.35 9.29999 19.35 8.32499 19.275C7.42499 19.2 6.97499 19.125 6.67499 18.975C6.22499 18.825 5.99999 18.6 5.62499 18.3C5.32499 18 5.09999 17.7 4.94999 17.25C4.79999 16.95 4.64999 16.5 4.64999 15.6C4.57499 14.7 4.57499 14.4 4.57499 12C4.57499 9.59999 4.57499 9.37499 4.64999 8.39999C4.79999 7.57499 4.94999 7.04999 5.09999 6.74999C5.24999 6.37499 5.47499 6.07499 5.77499 5.77499C6.07499 5.39999 6.37499 5.24999 6.74999 5.09999C7.04999 4.94999 7.49999 4.79999 8.39999 4.79999C9.22499 4.72499 9.52499 4.72499 11.175 4.72499ZM16.725 6.22499C16.5 6.22499 16.275 6.29999 16.125 6.37499C15.975 6.52499 15.825 6.67499 15.75 6.82499C15.675 7.04999 15.675 7.19999 15.675 7.42499C15.75 7.64999 15.825 7.79999 15.975 7.94999C16.125 8.09999 16.35 8.17499 16.5 8.24999C16.65 8.32499 16.95 8.24999 17.1 8.17499C17.325 8.09999 17.475 7.94999 17.55 7.79999C17.7 7.64999 17.7 7.42499 17.7 7.19999C17.775 6.67499 17.325 6.22499 16.725 6.22499ZM12 7.42499C9.52499 7.42499 7.42499 9.44999 7.42499 12C7.42499 14.55 9.44999 16.5 12 16.5C14.55 16.5 16.5 14.475 16.5 12C16.5 9.52499 14.475 7.42499 12 7.42499ZM12 8.99999C13.65 8.99999 14.925 10.35 14.925 11.925C14.925 13.575 13.575 14.85 12 14.85C10.35 14.85 9.07499 13.5 9.07499 11.925C8.99999 10.35 10.35 8.99999 12 8.99999Z" fill="white"/>
</g>
<defs>
<radialGradient id="paint0_radial" cx="0" cy="0" r="1" gradientUnits="userSpaceOnUse" gradientTransform="translate(6.36889 25.8154) rotate(-90) scale(23.7561 22.1011)">
<stop stop-color="#FFDD55"/>
<stop offset="0.1" stop-color="#FFDD55"/>
<stop offset="0.5" stop-color="#FF543E"/>
<stop offset="1" stop-color="#C837AB"/>
</radialGradient>
<radialGradient id="paint1_radial" cx="0" cy="0" r="1" gradientUnits="userSpaceOnUse" gradientTransform="translate(-4.02487 1.72929) rotate(78.6776) scale(10.6191 43.7837)">
<stop stop-color="#3771C8"/>
<stop offset="0.128" stop-color="#3771C8"/>
<stop offset="1" stop-color="#6600FF" stop-opacity="0"/>
</radialGradient>
<clipPath id="clip0">
<rect width="24" height="24" fill="white"/>
</clipPath>
</defs>
</svg>
