<svg width="32" height="32" viewBox="0 0 32 32" fill="none" xmlns="http://www.w3.org/2000/svg">
<g clip-path="url(#clip0_310_10573)">
<path d="M15.9978 31.9955C24.8331 31.9955 31.9955 24.8331 31.9955 15.9978C31.9955 7.16244 24.8331 0 15.9978 0C7.16244 0 0 7.16244 0 15.9978C0 24.8331 7.16244 31.9955 15.9978 31.9955Z" fill="#34E0A1"/>
<path d="M16 0C9.3 0 7.4 0 7 0C5.6 0.2 4.8 0.4 3.8 0.8C3.1 1.2 2.6 1.6 2 2.2C1 3.2 0.4 4.5 0.1 6.1C0 6.8 0 7 0 10.8C0 12.1 0 13.7 0 16C0 22.7 0 24.6 0 25C0.1 26.3 0.3 27.2 0.8 28.1C1.6 29.9 3.3 31.2 5.2 31.7C5.9 31.9 6.6 32 7.5 32C7.9 32 11.9 32 16 32C20 32 24.1 32 24.5 32C25.6 31.9 26.2 31.9 26.9 31.7C27.8 31.5 28.7 31 29.5 30.4C30.3 29.8 30.9 29 31.3 28.1C31.7 27.2 32 26.3 32.1 25.1C32.1 24.8 32.1 20.4 32.1 16C32.1 11.6 32.1 7.2 32.1 7C32 5.7 31.8 4.9 31.3 3.9C30.9 3.2 30.5 2.6 29.9 2C28.8 1 27.5 0.4 26 0.2C25.2 0 25 0 21.2 0H16Z" fill="url(#paint0_radial_310_10573)"/>
<path d="M16 0C9.3 0 7.4 0 7 0C5.6 0.2 4.8 0.4 3.8 0.8C3.1 1.2 2.6 1.6 2 2.2C1 3.2 0.4 4.5 0.1 6.1C0 6.8 0 7 0 10.8C0 12.1 0 13.7 0 16C0 22.7 0 24.6 0 25C0.1 26.3 0.3 27.2 0.8 28.1C1.6 29.9 3.3 31.2 5.2 31.7C5.9 31.9 6.6 32 7.5 32C7.9 32 11.9 32 16 32C20 32 24.1 32 24.5 32C25.6 31.9 26.2 31.9 26.9 31.7C27.8 31.5 28.7 31 29.5 30.4C30.3 29.8 30.9 29 31.3 28.1C31.7 27.2 32 26.3 32.1 25.1C32.1 24.8 32.1 20.4 32.1 16C32.1 11.6 32.1 7.2 32.1 7C32 5.7 31.8 4.9 31.3 3.9C30.9 3.2 30.5 2.6 29.9 2C28.8 1 27.5 0.4 26 0.2C25.2 0 25 0 21.2 0H16Z" fill="#838C96"/>
<path d="M16.0002 4.2002C12.8002 4.2002 12.4002 4.2002 11.1002 4.3002C9.9002 4.3002 9.0002 4.5002 8.3002 4.8002C7.5002 5.1002 6.8002 5.5002 6.2002 6.2002C5.5002 6.8002 5.1002 7.5002 4.8002 8.3002C4.5002 9.0002 4.3002 9.9002 4.3002 11.1002C4.2002 12.4002 4.2002 12.8002 4.2002 16.0002C4.2002 19.2002 4.2002 19.6002 4.3002 20.9002C4.4002 22.2002 4.6002 23.0002 4.8002 23.8002C5.1002 24.6002 5.5002 25.2002 6.2002 25.9002C6.9002 26.6002 7.5002 27.0002 8.3002 27.3002C9.1002 27.6002 9.9002 27.8002 11.2002 27.8002C12.5002 27.9002 12.9002 27.9002 16.1002 27.9002C19.3002 27.9002 19.7002 27.9002 21.0002 27.8002C22.3002 27.7002 23.1002 27.5002 23.9002 27.3002C24.7002 27.0002 25.3002 26.6002 26.0002 25.9002C26.7002 25.2002 27.1002 24.6002 27.4002 23.8002C27.7002 23.0002 27.9002 22.2002 27.9002 20.9002C28.0002 19.6002 28.0002 19.2002 28.0002 16.0002C28.0002 12.8002 28.0002 12.4002 27.9002 11.1002C27.8002 9.8002 27.6002 9.0002 27.4002 8.2002C27.1002 7.4002 26.7002 6.8002 26.0002 6.1002C25.3002 5.4002 24.7002 5.0002 23.9002 4.7002C23.1002 4.4002 22.3002 4.2002 21.0002 4.2002C19.6002 4.2002 19.2002 4.2002 16.0002 4.2002ZM14.9002 6.3002C15.2002 6.3002 15.6002 6.3002 16.0002 6.3002C19.2002 6.3002 19.5002 6.3002 20.8002 6.4002C22.0002 6.5002 22.6002 6.6002 23.0002 6.8002C23.6002 7.0002 23.9002 7.3002 24.4002 7.7002C24.7002 8.1002 25.0002 8.5002 25.2002 9.0002C25.4002 9.4002 25.6002 10.0002 25.6002 11.2002C25.7002 12.4002 25.7002 12.8002 25.7002 16.0002C25.7002 19.1002 25.7002 19.5002 25.6002 20.8002C25.5002 22.0002 25.4002 22.6002 25.2002 23.0002C25.0002 23.6002 24.7002 23.9002 24.3002 24.4002C23.9002 24.8002 23.5002 25.1002 22.9002 25.3002C22.5002 25.5002 21.9002 25.7002 20.7002 25.7002C19.5002 25.8002 19.1002 25.8002 15.9002 25.8002C12.7002 25.8002 12.4002 25.8002 11.1002 25.7002C9.9002 25.6002 9.3002 25.5002 8.9002 25.3002C8.3002 25.1002 8.0002 24.8002 7.5002 24.4002C7.1002 24.0002 6.8002 23.6002 6.6002 23.0002C6.4002 22.6002 6.2002 22.0002 6.2002 20.8002C6.1002 19.6002 6.1002 19.2002 6.1002 16.0002C6.1002 12.8002 6.1002 12.5002 6.2002 11.2002C6.4002 10.1002 6.6002 9.4002 6.8002 9.0002C7.0002 8.5002 7.3002 8.1002 7.7002 7.7002C8.1002 7.2002 8.5002 7.0002 9.0002 6.8002C9.4002 6.6002 10.0002 6.4002 11.2002 6.4002C12.3002 6.3002 12.7002 6.3002 14.9002 6.3002ZM22.3002 8.3002C22.0002 8.3002 21.7002 8.4002 21.5002 8.5002C21.3002 8.7002 21.1002 8.9002 21.0002 9.1002C20.9002 9.4002 20.9002 9.6002 20.9002 9.9002C21.0002 10.2002 21.1002 10.4002 21.3002 10.6002C21.5002 10.8002 21.8002 10.9002 22.0002 11.0002C22.2002 11.1002 22.6002 11.0002 22.8002 10.9002C23.1002 10.8002 23.3002 10.6002 23.4002 10.4002C23.6002 10.2002 23.6002 9.9002 23.6002 9.6002C23.7002 8.9002 23.1002 8.3002 22.3002 8.3002ZM16.0002 9.9002C12.7002 9.9002 9.9002 12.6002 9.9002 16.0002C9.9002 19.4002 12.6002 22.0002 16.0002 22.0002C19.4002 22.0002 22.0002 19.3002 22.0002 16.0002C22.0002 12.7002 19.3002 9.9002 16.0002 9.9002ZM16.0002 12.0002C18.2002 12.0002 19.9002 13.8002 19.9002 15.9002C19.9002 18.1002 18.1002 19.8002 16.0002 19.8002C13.8002 19.8002 12.1002 18.0002 12.1002 15.9002C12.0002 13.8002 13.8002 12.0002 16.0002 12.0002Z" fill="white"/>
</g>
<defs>
<radialGradient id="paint0_radial_310_10573" cx="0" cy="0" r="1" gradientUnits="userSpaceOnUse" gradientTransform="translate(8.49185 34.4206) rotate(-90) scale(31.6748 29.4681)">
<stop stop-color="#FFDD55"/>
<stop offset="0.1" stop-color="#FFDD55"/>
<stop offset="0.5" stop-color="#FF543E"/>
<stop offset="1" stop-color="#C837AB"/>
</radialGradient>
<clipPath id="clip0_310_10573">
<rect width="32" height="32" fill="white"/>
</clipPath>
</defs>
</svg>
