<svg width="1160" height="10" viewBox="0 0 1160 10" fill="none" xmlns="http://www.w3.org/2000/svg">
<path d="M-53 -10H-43L-68 10H-78L-53 -10Z" fill="#5CC3DE"/>
<path d="M-13 -10H-3L-28 10H-38L-13 -10Z" fill="#5CC3DE"/>
<path d="M627 -10H637L612 10H602L627 -10Z" fill="#5CC3DE"/>
<path d="M307 -10H317L292 10H282L307 -10Z" fill="#5CC3DE"/>
<path d="M947 -10H957L932 10H922L947 -10Z" fill="#5CC3DE"/>
<path d="M147 -10H157L132 10H122L147 -10Z" fill="#5CC3DE"/>
<path d="M787 -10H797L772 10H762L787 -10Z" fill="#5CC3DE"/>
<path d="M467 -10H477L452 10H442L467 -10Z" fill="#5CC3DE"/>
<path d="M1107 -10H1117L1092 10H1082L1107 -10Z" fill="#5CC3DE"/>
<path d="M67 -10H77L52 10H42L67 -10Z" fill="#5CC3DE"/>
<path d="M707 -10H717L692 10H682L707 -10Z" fill="#5CC3DE"/>
<path d="M387 -10H397L372 10H362L387 -10Z" fill="#5CC3DE"/>
<path d="M1027 -10H1037L1012 10H1002L1027 -10Z" fill="#5CC3DE"/>
<path d="M227 -10H237L212 10H202L227 -10Z" fill="#5CC3DE"/>
<path d="M867 -10H877L852 10H842L867 -10Z" fill="#5CC3DE"/>
<path d="M547 -10H557L532 10H522L547 -10Z" fill="#5CC3DE"/>
<path d="M1187 -10H1197L1172 10H1162L1187 -10Z" fill="#5CC3DE"/>
<path d="M27 -10H37L12 10H2L27 -10Z" fill="#5CC3DE"/>
<path d="M667 -10H677L652 10H642L667 -10Z" fill="#5CC3DE"/>
<path d="M347 -10H357L332 10H322L347 -10Z" fill="#5CC3DE"/>
<path d="M987 -10H997L972 10H962L987 -10Z" fill="#5CC3DE"/>
<path d="M187 -10H197L172 10H162L187 -10Z" fill="#5CC3DE"/>
<path d="M827 -10H837L812 10H802L827 -10Z" fill="#5CC3DE"/>
<path d="M507 -10H517L492 10H482L507 -10Z" fill="#5CC3DE"/>
<path d="M1147 -10H1157L1132 10H1122L1147 -10Z" fill="#5CC3DE"/>
<path d="M107 -10H117L92 10H82L107 -10Z" fill="#5CC3DE"/>
<path d="M747 -10H757L732 10H722L747 -10Z" fill="#5CC3DE"/>
<path d="M427 -10H437L412 10H402L427 -10Z" fill="#5CC3DE"/>
<path d="M1067 -10H1077L1052 10H1042L1067 -10Z" fill="#5CC3DE"/>
<path d="M267 -10H277L252 10H242L267 -10Z" fill="#5CC3DE"/>
<path d="M907 -10H917L892 10H882L907 -10Z" fill="#5CC3DE"/>
<path d="M587 -10H597L572 10H562L587 -10Z" fill="#5CC3DE"/>
<path d="M1227 -10H1237L1212 10H1202L1227 -10Z" fill="#5CC3DE"/>
<path d="M-33 -10H-23L-48 10H-58L-33 -10Z" fill="#FF0514"/>
<path d="M607 -10H617L592 10H582L607 -10Z" fill="#FF0514"/>
<path d="M287 -10H297L272 10H262L287 -10Z" fill="#FF0514"/>
<path d="M927 -10H937L912 10H902L927 -10Z" fill="#FF0514"/>
<path d="M127 -10H137L112 10H102L127 -10Z" fill="#FF0514"/>
<path d="M767 -10H777L752 10H742L767 -10Z" fill="#FF0514"/>
<path d="M447 -10H457L432 10H422L447 -10Z" fill="#FF0514"/>
<path d="M1087 -10H1097L1072 10H1062L1087 -10Z" fill="#FF0514"/>
<path d="M47 -10H57L32 10H22L47 -10Z" fill="#FF0514"/>
<path d="M687 -10H697L672 10H662L687 -10Z" fill="#FF0514"/>
<path d="M367 -10H377L352 10H342L367 -10Z" fill="#FF0514"/>
<path d="M1007 -10H1017L992 10H982L1007 -10Z" fill="#FF0514"/>
<path d="M207 -10H217L192 10H182L207 -10Z" fill="#FF0514"/>
<path d="M847 -10H857L832 10H822L847 -10Z" fill="#FF0514"/>
<path d="M527 -10H537L512 10H502L527 -10Z" fill="#FF0514"/>
<path d="M1167 -10H1177L1152 10H1142L1167 -10Z" fill="#FF0514"/>
<path d="M7 -10H17L-8 10H-18L7 -10Z" fill="#FF0514"/>
<path d="M647 -10H657L632 10H622L647 -10Z" fill="#FF0514"/>
<path d="M327 -10H337L312 10H302L327 -10Z" fill="#FF0514"/>
<path d="M967 -10H977L952 10H942L967 -10Z" fill="#FF0514"/>
<path d="M167 -10H177L152 10H142L167 -10Z" fill="#FF0514"/>
<path d="M807 -10H817L792 10H782L807 -10Z" fill="#FF0514"/>
<path d="M487 -10H497L472 10H462L487 -10Z" fill="#FF0514"/>
<path d="M1127 -10H1137L1112 10H1102L1127 -10Z" fill="#FF0514"/>
<path d="M87 -10H97L72 10H62L87 -10Z" fill="#FF0514"/>
<path d="M727 -10H737L712 10H702L727 -10Z" fill="#FF0514"/>
<path d="M407 -10H417L392 10H382L407 -10Z" fill="#FF0514"/>
<path d="M1047 -10H1057L1032 10H1022L1047 -10Z" fill="#FF0514"/>
<path d="M247 -10H257L232 10H222L247 -10Z" fill="#FF0514"/>
<path d="M887 -10H897L872 10H862L887 -10Z" fill="#FF0514"/>
<path d="M567 -10H577L552 10H542L567 -10Z" fill="#FF0514"/>
<path d="M1207 -10H1217L1192 10H1182L1207 -10Z" fill="#FF0514"/>
</svg>
