<svg width="37" height="24" viewBox="0 0 37 24" fill="none" xmlns="http://www.w3.org/2000/svg">
<path d="M36.5091 0H35.4897V24H36.5091V0Z" fill="#3F826D"/>
<path d="M13.4363 3.98471H8.80309L3.6139 9.91521V3.98471H0V20.0156H3.6139V13.2511L8.98841 20.0156H13.7143L6.67181 11.3978L13.4363 3.98471Z" fill="#3F826D"/>
<path d="M24.834 5.28194C23.6294 4.26264 22.3321 3.98465 20.5715 3.98465H15.7529V19.9229H19.3668V14.2704H20.9421C22.7027 14.2704 24.0927 13.807 25.0193 12.7877C26.224 11.5831 26.4093 10.0078 26.4093 9.17384C26.502 8.2472 26.3166 6.57924 24.834 5.28194ZM19.4595 7.22789H20.2008C20.8494 7.22789 21.5908 7.22789 22.1468 7.69121C22.4247 7.87654 22.8881 8.33986 22.8881 9.17384C22.8881 9.82248 22.6101 10.3785 22.1468 10.7491C21.5908 11.2124 20.9421 11.2124 20.3861 11.2124H19.4595V7.22789Z" fill="#3F826D"/>
</svg>
