<svg width="200" height="45" viewBox="0 0 200 45" fill="none" xmlns="http://www.w3.org/2000/svg">
<path d="M40.744 0H39.6064V26.7839H40.744V0Z" fill="#3F826D"/>
<path d="M14.9948 4.4469H9.8242L4.03309 11.0653V4.4469H0V22.3373H4.03309V14.7882L10.031 22.3373H15.3051L7.44571 12.7199L14.9948 4.4469Z" fill="#3F826D"/>
<path d="M27.715 5.89467C26.3706 4.75713 24.9229 4.4469 22.958 4.4469H17.5806V22.2339H21.6137V15.9257H23.3717C25.3365 15.9257 26.8877 15.4086 27.9218 14.2711C29.2662 12.9267 29.473 11.1687 29.473 10.238C29.5764 9.20388 29.3696 7.34245 27.715 5.89467ZM21.7171 8.06634H22.5444C23.2683 8.06634 24.0956 8.06634 24.716 8.5834C25.0263 8.79023 25.5433 9.30729 25.5433 10.238C25.5433 10.9619 25.2331 11.5824 24.716 11.996C24.0956 12.5131 23.3717 12.5131 22.7512 12.5131H21.7171V8.06634Z" fill="#3F826D"/>
<path d="M53.4641 11.5824L60.3928 4.4469H64.0122L55.946 12.5131L64.0122 22.2339H60.3928L53.9812 14.2711L53.4641 14.7882V22.1305H50.7754V4.4469H53.4641V11.5824Z" fill="#3F826D"/>
<path d="M73.7333 11.0653H76.3186V22.3373H73.7333V21.1997C72.5958 22.5441 71.148 22.7509 70.3207 22.7509C66.8047 22.7509 64.8398 19.8554 64.8398 16.753C64.8398 13.1335 67.3217 10.8585 70.3207 10.8585C71.148 10.8585 72.5958 11.0653 73.6299 12.5131V11.0653H73.7333ZM67.5286 16.6496C67.5286 18.6144 68.7695 20.269 70.6309 20.269C72.2855 20.269 73.8367 19.0281 73.8367 16.753C73.8367 14.2711 72.2855 13.1335 70.6309 13.1335C68.7695 13.1335 67.5286 14.6847 67.5286 16.6496Z" fill="#3F826D"/>
<path d="M89.0387 22.3372H86.4534V13.4437H83.1442V17.8904C83.1442 18.8211 83.0408 20.0621 82.1101 21.0962C81.0759 22.2338 79.6282 22.4406 78.3872 22.2338V19.8553C79.2145 20.0621 79.835 19.7518 80.2486 19.3382C80.5589 18.9245 80.6623 18.3041 80.6623 17.8904V11.0652H89.1421V22.3372H89.0387Z" fill="#3F826D"/>
<path d="M96.0698 20.1655L91.106 10.9618H94.3118L97.621 17.27L100.827 10.9618H103.722L94.7254 28.3351H91.8298L96.0698 20.1655Z" fill="#3F826D"/>
<path d="M105.688 11.0652H112.616V13.4437H108.376V22.3372H105.791V11.0652H105.688Z" fill="#3F826D"/>
<path d="M122.958 11.0653H125.543V22.3373H122.958V21.1997C121.82 22.5441 120.373 22.7509 119.545 22.7509C116.029 22.7509 114.064 19.8554 114.064 16.753C114.064 13.1335 116.546 10.8585 119.545 10.8585C120.373 10.8585 121.82 11.0653 122.855 12.5131V11.0653H122.958ZM116.753 16.6496C116.753 18.6144 117.994 20.269 119.856 20.269C121.51 20.269 123.061 19.0281 123.061 16.753C123.061 14.2711 121.51 13.1335 119.856 13.1335C117.994 13.1335 116.753 14.6847 116.753 16.6496Z" fill="#3F826D"/>
<path d="M148.707 4.4469V22.2339H146.019V7.03221H138.366V22.3373H135.677V4.4469H148.707Z" fill="#3F826D"/>
<path d="M161.427 22.3372H158.842V13.4437H155.533V17.8904C155.533 18.8211 155.429 20.0621 154.499 21.0962C153.465 22.2338 152.017 22.4406 150.776 22.2338V19.8553C151.5 20.0621 152.224 19.7518 152.637 19.3382C152.948 18.9245 153.051 18.3041 153.051 17.8904V11.0652H161.531V22.3372H161.427Z" fill="#3F826D"/>
<path d="M172.285 11.0653H174.87V22.3373H172.285V21.1997C171.147 22.5441 169.699 22.7509 168.872 22.7509C165.356 22.7509 163.391 19.8554 163.391 16.753C163.391 13.1335 165.873 10.8585 168.872 10.8585C169.699 10.8585 171.147 11.0653 172.181 12.5131V11.0653H172.285ZM166.08 16.6496C166.08 18.6144 167.321 20.269 169.182 20.269C170.837 20.269 172.388 19.0281 172.388 16.753C172.388 14.2711 170.837 13.1335 169.182 13.1335C167.321 13.1335 166.08 14.6847 166.08 16.6496Z" fill="#3F826D"/>
<path d="M177.559 12.513C177.869 12.2028 178.283 11.7891 179.007 11.3755C179.938 10.9618 180.765 10.755 181.696 10.755C182.73 10.755 183.764 10.9618 184.591 11.5823C185.212 12.0994 185.729 12.7198 185.729 13.754C185.729 15.0983 184.901 15.8222 184.177 16.1325C184.901 16.2359 185.315 16.5461 185.625 16.8563C186.039 17.27 186.556 17.8905 186.556 18.8212C186.556 20.0621 185.935 21.1997 185.005 21.8202C184.177 22.3372 182.833 22.7509 181.696 22.7509C180.558 22.7509 179.42 22.4406 178.49 21.8202C177.869 21.4065 177.352 20.6826 177.042 20.0621L179.11 19.028C179.42 19.6485 179.834 20.0621 180.041 20.1656C180.558 20.5792 181.178 20.6826 181.696 20.6826C182.73 20.6826 183.143 20.4758 183.35 20.269C183.66 20.0621 183.971 19.6485 183.971 19.028C183.971 18.4075 183.66 18.0973 183.454 17.8905C183.04 17.5802 182.523 17.5802 182.006 17.5802H180.661V15.4086H181.799C182.109 15.4086 182.626 15.3052 182.937 15.0983C183.247 14.8915 183.35 14.5813 183.35 14.1676C183.35 13.754 183.143 13.4437 182.833 13.2369C182.419 12.9267 181.902 12.9267 181.592 12.9267C181.178 12.9267 180.661 13.0301 180.144 13.2369C179.834 13.3403 179.524 13.6506 179.317 13.9608L177.559 12.513Z" fill="#3F826D"/>
<path d="M197.414 11.0653H200V22.3373H197.414V21.1997C196.277 22.5441 194.829 22.7509 194.002 22.7509C190.486 22.7509 188.521 19.8554 188.521 16.753C188.521 13.1335 191.003 10.8585 194.002 10.8585C194.829 10.8585 196.277 11.0653 197.311 12.5131V11.0653H197.414ZM191.21 16.6496C191.21 18.6144 192.451 20.269 194.312 20.269C195.967 20.269 197.518 19.0281 197.518 16.753C197.518 14.2711 195.967 13.1335 194.312 13.1335C192.451 13.1335 191.21 14.6847 191.21 16.6496Z" fill="#3F826D"/>
<path d="M120.269 34.5398H124.715V35.2637H121.096V42.7094H120.269V34.5398Z" fill="#3F826D"/>
<path d="M134.54 38.6763C134.54 41.0547 132.678 43.0196 130.196 43.0196C127.818 43.0196 125.853 41.1582 125.853 38.6763C125.853 36.2978 127.714 34.3329 130.196 34.3329C132.678 34.3329 134.54 36.1943 134.54 38.6763ZM133.609 38.6763C133.609 36.7114 132.161 35.1602 130.196 35.1602C128.232 35.1602 126.784 36.7114 126.784 38.6763C126.784 40.6411 128.232 42.1923 130.196 42.1923C132.161 42.1923 133.609 40.6411 133.609 38.6763Z" fill="#3F826D"/>
<path d="M143.847 36.5046C143.33 35.8841 142.399 35.1602 141.055 35.1602C139.09 35.1602 137.642 36.7114 137.642 38.6763C137.642 41.0547 139.4 42.1923 141.055 42.1923C142.399 42.1923 143.433 41.4684 144.054 40.7445V41.7786C143.537 42.2957 142.503 42.9162 141.055 42.9162C138.573 42.9162 136.815 41.0547 136.815 38.6763C136.815 36.2978 138.47 34.3329 141.055 34.3329C141.675 34.3329 142.709 34.4363 143.847 35.367V36.5046Z" fill="#3F826D"/>
<path d="M148.5 35.2637H145.604V34.5398H152.119V35.2637H149.224V42.7094H148.5V35.2637Z" fill="#3F826D"/>
<path d="M155.015 34.5398V41.0548L160.806 34.0227V42.7094H159.979V36.1944L154.188 43.2264V34.5398H155.015Z" fill="#3F826D"/>
<path d="M164.012 34.5398H164.84V38.1592H169.493V34.5398H170.32V42.7094H169.493V38.8831H164.84V42.7094H164.012V34.5398Z" fill="#3F826D"/>
<path d="M174.249 34.5398V41.0548L180.04 34.0227V42.7094H179.213V36.1944L173.422 43.2264V34.5398H174.249Z" fill="#3F826D"/>
<path d="M183.248 34.5398H184.075V41.9855H188.522V34.5398H189.349V41.9855H190.59V44.9845H189.866V42.8128H183.454V34.5398H183.248Z" fill="#3F826D"/>
<path d="M199.172 34.5397H199.999V42.7093H199.172V41.2616C198.345 42.5025 197 42.9162 195.966 42.9162C193.795 42.9162 191.933 41.2616 191.933 38.5728C191.933 36.0909 193.588 34.3329 195.966 34.3329C197.207 34.3329 198.345 34.85 199.172 35.9875V34.5397ZM192.864 38.5728C192.864 40.4343 194.001 42.1923 196.07 42.1923C198.138 42.1923 199.275 40.4343 199.275 38.5728C199.275 36.1943 197.517 35.1602 196.07 35.1602C194.415 35.1602 192.864 36.4012 192.864 38.5728Z" fill="#3F826D"/>
</svg>
