<svg xmlns="http://www.w3.org/2000/svg" width="295" height="38" viewBox="0 0 295 38" fill="none">
<path d="M85.9626 12.4431H87.288V30.9831H83.3861V19.7192L72.8576 31.3895H71.4958V12.85H75.3976V24.1878L85.9626 12.4431Z" fill="#1159B6"/>
<path d="M114.257 12.85H127.546V30.9831H123.68V16.2105H117.864L117.828 18.0198C117.705 22.7481 117.195 26.127 116.3 28.1578C115.404 30.1892 113.889 31.2046 111.754 31.2046C111.239 31.2046 110.772 31.1308 110.355 30.9831V27.7331C110.747 27.7827 110.993 27.8074 111.091 27.8074C112.171 27.8074 112.944 26.9947 113.41 25.3692C113.876 23.7442 114.134 21.0855 114.183 17.3924L114.257 12.85Z" fill="#1159B6"/>
<path d="M146.93 12.4431H148.255V30.9831H144.353V19.7192L133.825 31.3895H132.462V12.85H136.365V24.1878L146.93 12.4431Z" fill="#1159B6"/>
<path d="M167.161 21.9354C167.161 20.2613 166.621 18.8514 165.541 17.7061C164.461 16.5618 163.136 15.9895 161.566 15.9895C159.97 15.9895 158.633 16.5618 157.554 17.7061C156.473 18.8514 155.934 20.2613 155.934 21.9354C155.934 23.6099 156.467 25.007 157.535 26.127C158.602 27.2474 159.933 27.8074 161.529 27.8074C163.124 27.8074 164.461 27.241 165.541 26.1081C166.621 24.9757 167.161 23.5847 167.161 21.9354ZM151.994 21.8977C151.945 19.3133 152.871 17.0782 154.774 15.1955C156.675 13.3119 158.927 12.395 161.529 12.4431C164.154 12.395 166.425 13.3183 168.339 15.2139C170.253 17.1095 171.186 19.3376 171.137 21.8977C171.186 24.4831 170.253 26.7236 168.339 28.6197C166.425 30.5158 164.154 31.438 161.529 31.3895C158.927 31.438 156.675 30.5093 154.774 28.6014C152.871 26.6934 151.945 24.4588 151.994 21.8977Z" fill="#1159B6"/>
<path d="M105.688 15.2139C103.774 13.3183 101.503 12.395 98.878 12.4431C96.8433 12.4055 95.026 12.9669 93.4191 14.1102V20.2906C93.4191 20.3312 93.4715 20.3357 93.4813 20.296C93.7244 19.3202 94.1956 18.4559 94.9025 17.7061C95.9527 16.5931 97.2469 16.0207 98.7856 15.9904C100.324 15.9597 101.833 16.5856 102.891 17.7076C103.97 18.8519 104.51 20.2618 104.51 21.9354C104.51 23.5847 103.97 24.9757 102.89 26.1081C101.81 27.241 100.473 27.8074 98.878 27.8074C97.2819 27.8074 95.9517 27.2474 94.8842 26.127C94.1872 25.3955 93.7229 24.5446 93.4813 23.5772C93.4715 23.5381 93.4191 23.5425 93.4191 23.5827V29.7001C95.026 30.8592 96.8433 31.4276 98.878 31.3895C101.503 31.438 103.774 30.5158 105.688 28.6197C107.602 26.7236 108.535 24.4831 108.486 21.8977C108.535 19.3376 107.602 17.1095 105.688 15.2139Z" fill="#1159B6"/>
<path d="M107.632 0.765869L97.154 5.27115C94.9055 6.23752 93.4478 8.70648 93.4478 11.1606L107.632 5.06152V0.765869Z" fill="#1159B6"/>
<path d="M64.352 15.2139C62.4378 13.3183 60.1671 12.395 57.5416 12.4431C55.5075 12.4055 53.6896 12.9669 52.0828 14.1102V20.2906C52.0828 20.3312 52.1351 20.3357 52.145 20.296C52.388 19.3202 52.8593 18.4559 53.5662 17.7061C54.6163 16.5931 55.911 16.0207 57.4492 15.9904C58.988 15.9597 60.4975 16.5856 61.5546 17.7076C62.6344 18.8519 63.1739 20.2618 63.1739 21.9354C63.1739 23.5847 62.6344 24.9757 61.5541 26.1081C60.4738 27.241 59.1366 27.8074 57.5416 27.8074C55.9461 27.8074 54.6153 27.2474 53.5479 26.127C52.8509 25.3955 52.3866 24.5446 52.145 23.5772C52.1351 23.5381 52.0828 23.5425 52.0828 23.5827V29.7001C53.6896 30.8592 55.5075 31.4276 57.5416 31.3895C60.1671 31.438 62.4378 30.5158 64.352 28.6197C66.2661 26.7236 67.1987 24.4831 67.1498 21.8977C67.1987 19.3376 66.2661 17.1095 64.352 15.2139Z" fill="#1159B6"/>
<path d="M66.2953 0.765869L55.8177 5.27115C53.5691 6.23752 52.1114 8.70648 52.1114 11.1606L66.2953 5.06152V0.765869Z" fill="#1159B6"/>
<path d="M182.29 30.9836V12.85H195.027V16.211H186.191V30.9836H182.29Z" fill="#1159B6"/>
<path d="M199.594 12.85H212.884V30.9836H209.018V16.211H203.202L203.165 18.0198C203.042 22.7476 202.533 26.1264 201.637 28.1583C200.742 30.1892 199.226 31.2046 197.091 31.2046C196.576 31.2046 196.109 31.1308 195.692 30.9836V27.7331C196.084 27.7827 196.33 27.8074 196.429 27.8074C197.508 27.8074 198.281 26.9947 198.748 25.3697C199.214 23.7447 199.472 21.0864 199.521 17.3924L199.594 12.85Z" fill="#1159B6"/>
<path d="M231.789 21.9354C231.789 20.2613 231.249 18.8514 230.169 17.7061C229.089 16.5618 227.764 15.9895 226.193 15.9895C224.598 15.9895 223.261 16.5618 222.181 17.7061C221.101 18.8514 220.562 20.2613 220.562 21.9354C220.562 23.6099 221.095 25.0069 222.163 26.1265C223.231 27.2479 224.561 27.8074 226.157 27.8074C227.752 27.8074 229.089 27.241 230.169 26.1091C231.249 24.9757 231.789 23.5851 231.789 21.9354ZM216.623 21.8982C216.573 19.3133 217.5 17.0782 219.401 15.1955C221.304 13.3119 223.556 12.395 226.157 12.4441C228.782 12.395 231.053 13.3183 232.967 15.2139C234.881 17.1095 235.814 19.3376 235.765 21.8982C235.814 24.4831 234.881 26.7241 232.967 28.6197C231.053 30.5158 228.782 31.4385 226.157 31.3895C223.556 31.4385 221.304 30.5098 219.401 28.6009C217.5 26.6929 216.573 24.4588 216.623 21.8982Z" fill="#1159B6"/>
<path d="M271.933 12.85H276.056L267.257 33.0511C266.497 34.7742 265.588 36.0365 264.533 36.8368C263.663 37.4964 262.625 37.8845 261.421 37.9999H259.667C258.977 37.9469 258.305 37.8359 257.65 37.6679V34.3808C258.656 34.4789 259.368 34.5284 259.785 34.5284C261.65 34.5284 262.963 33.6423 263.724 31.8692L264.46 30.1708L257.245 12.85H261.404L266.595 26.0343L271.933 12.85Z" fill="#1159B6"/>
<path d="M277.134 21.8982C277.084 19.3133 278.017 17.0782 279.931 15.1955C281.846 13.3119 284.103 12.395 286.704 12.4441C290.091 12.4441 292.631 13.8471 294.325 16.654L291.601 18.7959C290.325 16.9494 288.704 16.0261 286.742 16.0261C285.121 16.0261 283.772 16.5931 282.692 17.725C281.611 18.8578 281.073 20.2489 281.073 21.8982C281.073 23.5728 281.611 24.9757 282.692 26.1091C283.772 27.241 285.121 27.8074 286.742 27.8074C288.656 27.8074 290.275 26.8961 291.601 25.0743L294.325 27.1796C293.515 28.5092 292.447 29.543 291.122 30.2814C289.797 31.0203 288.325 31.3895 286.704 31.3895C284.029 31.3895 281.765 30.4662 279.913 28.6197C278.059 26.7727 277.134 24.5332 277.134 21.8982Z" fill="#1159B6"/>
<path d="M251.959 15.2139C250.045 13.3183 247.775 12.395 245.149 12.4441C243.115 12.4055 241.297 12.9669 239.69 14.1107V20.2915C239.69 20.3317 239.743 20.3361 239.753 20.2965C239.996 19.3207 240.466 18.4559 241.174 17.7061C242.224 16.5931 243.518 16.0202 245.056 15.9904C246.595 15.9602 248.105 16.5856 249.162 17.7076C250.242 18.8519 250.781 20.2618 250.781 21.9354C250.781 23.5851 250.241 24.9757 249.162 26.1091C248.081 27.241 246.744 27.8074 245.149 27.8074C243.553 27.8074 242.222 27.2479 241.155 26.1264C240.458 25.396 239.994 24.5446 239.753 23.5777C239.743 23.5386 239.69 23.5425 239.69 23.5832V29.701C241.297 30.8592 243.115 31.4276 245.149 31.3895C247.775 31.4385 250.045 30.5158 251.959 28.6197C253.873 26.7241 254.806 24.4831 254.757 21.8982C254.806 19.3376 253.873 17.1095 251.959 15.2139Z" fill="#1159B6"/>
<path d="M253.903 0.765869L243.425 5.27115C241.177 6.23752 239.719 8.70648 239.719 11.1606L253.903 5.06152V0.765869Z" fill="#1159B6"/>
<path d="M18.2812 33.2665C10.6885 33.0154 4.54325 26.7862 4.36735 19.1665C4.2565 14.3668 6.49344 10.0751 10.0032 7.3674C12.5727 10.6358 14.1847 14.6951 14.409 19.1166C14.4266 19.4695 14.4356 19.8241 14.4356 20.1811C14.4356 21.2732 14.3496 22.3454 14.1863 23.3922C14.1697 23.4995 14.263 23.5894 14.3692 23.5684C15.6589 23.3147 16.9908 23.1808 18.3536 23.1808C18.4425 23.1808 18.5311 23.1835 18.6194 23.1845C23.0618 23.2407 27.1702 24.7118 30.5187 27.1668C27.8201 30.9823 23.325 33.4333 18.2812 33.2665ZM32.4901 23.2054C28.5698 20.5031 23.8477 18.8908 18.7611 18.8086C18.4876 13.7424 16.7094 9.07187 13.8687 5.23772C12.9481 3.99508 11.9162 2.84067 10.7874 1.78882C9.40479 2.44277 8.1144 3.26121 6.94116 4.21917C2.70889 7.67373 0 12.938 0 18.8259C0 29.2066 8.41808 37.652 18.7651 37.652C24.8911 37.652 30.3401 34.6916 33.7672 30.1226C34.6763 28.9102 35.4433 27.585 36.0427 26.1712C34.9527 25.0777 33.7642 24.0835 32.4901 23.2054Z" fill="#1159B6"/>
<path d="M18.1288 30.6593C15.3462 30.6593 12.7797 29.7373 10.7117 28.1843C8.17339 26.2781 6.38683 23.4198 5.87936 20.1361C5.86908 20.0688 5.81199 20.0186 5.74362 20.0186C5.66131 20.0186 5.59593 20.0901 5.60423 20.1727C5.95238 23.6286 7.62544 26.6909 10.1043 28.8443C12.4179 30.8547 15.4342 32.0731 18.7361 32.0731C22.5775 32.0731 26.0324 30.4252 28.4449 27.7977C28.5764 27.6556 28.5525 27.4281 28.3905 27.3219C28.0895 27.1255 27.7835 26.937 27.4722 26.7559C27.3471 26.6829 27.1897 26.7086 27.0898 26.8135C24.8326 29.1819 21.6535 30.6593 18.1288 30.6593Z" fill="#29C3EE"/>
<path d="M36.9759 14.2791C36.9749 14.2758 36.9723 14.2728 36.9693 14.2711C35.0331 13.2995 32.8479 12.7524 30.5359 12.7524C27.3548 12.7524 24.4159 13.7886 22.0326 15.5407C22.021 15.5494 22.0316 15.5674 22.0448 15.561C23.6675 14.7483 25.4965 14.2884 27.4334 14.2884C30.2319 14.2884 32.8064 15.2444 34.8548 16.846C34.9179 16.8953 34.8565 16.9941 34.7858 16.9569C33.1748 16.1178 31.3451 15.643 29.4045 15.643C28.2761 15.643 27.1862 15.8061 26.154 16.1054C28.152 16.4727 30.6392 17.1666 33.1625 18.4745C34.5741 19.2064 35.9959 20.1307 37.3493 21.2974C37.3566 21.3038 37.3679 21.2994 37.3696 21.2901C37.4748 20.483 37.5302 19.6609 37.5302 18.8258C37.5302 17.2585 37.337 15.7362 36.9759 14.2791Z" fill="#FDC62E"/>
<path d="M27.4336 14.2884C25.6663 14.2884 23.9892 14.671 22.4765 15.3556C22.4174 15.3819 22.3703 15.2996 22.4237 15.263C24.7343 13.6794 27.5269 12.7524 30.5361 12.7524C32.8504 12.7524 35.0369 13.3008 36.9748 14.2738C34.94 6.08502 27.5484 0 18.7653 0C17.6329 0 16.5237 0.10089 15.446 0.294679C16.4407 1.26628 17.6262 2.62247 18.7069 4.37789C20.4062 7.13954 21.8419 10.8874 21.8462 15.6782C21.8462 15.6862 21.8466 15.6935 21.8466 15.7015C21.8466 15.7015 21.9309 15.6975 22.0875 15.6975C22.3749 15.6975 22.9159 15.7075 23.6444 15.7681C24.3308 15.8251 25.1854 15.9269 26.1542 16.1054C27.1863 15.8061 28.2763 15.6429 29.4047 15.6429C31.3824 15.6429 33.245 16.1361 34.8782 17.0054C34.9383 17.0374 34.9931 16.9552 34.94 16.9129C32.8779 15.2707 30.2706 14.2884 27.4336 14.2884Z" fill="#FF6F00"/>
</svg>