<svg width="35" height="40" viewBox="0 0 35 40" fill="none" xmlns="http://www.w3.org/2000/svg">
<path d="M20.8586 0.891179C20.8586 0.17718 20.0651 -0.245934 19.4782 0.155155L14.0868 6.27173C13.8446 6.43732 13.6995 6.71297 13.6995 7.00775V16.4117C13.6995 16.6574 13.8974 16.8566 14.1414 16.8566H20.4167C20.6607 16.8566 20.8586 16.6574 20.8586 16.4117V0.891179Z" fill="white"/>
<path d="M33.6197 7.83578C34.2065 7.43469 35 7.8578 35 8.5718V19.7492C35 21.2231 34.2747 22.6013 33.0633 23.4293L29.2212 26.0553C28.6344 26.4564 27.8409 26.0332 27.8409 25.3193V12.2568C27.8409 11.962 27.986 11.6863 28.2282 11.5207L33.6197 7.83578Z" fill="white"/>
<path d="M5.77876 12.462C6.36559 12.0609 7.15909 12.484 7.15909 13.198V26.2605C7.15909 26.5553 7.01403 26.831 6.77175 26.9966L1.38033 30.6815C0.793507 31.0826 0 30.6595 0 29.9455V18.7681C0 17.2942 0.725304 15.916 1.9367 15.088L5.77876 12.462Z" fill="white"/>
<path d="M15.0798 39.8448C14.493 40.2459 13.6995 39.8228 13.6995 39.1088V22.3725C13.6995 22.1268 13.8974 21.9276 14.1414 21.9276H20.4167C20.6607 21.9276 20.8586 22.1268 20.8586 22.3725V31.7764C20.8586 32.0712 20.7135 32.3469 20.4712 32.5125L15.0798 39.8448Z" fill="white"/>
</svg>
