<svg width="220" height="96" viewBox="0 0 220 96" fill="none" xmlns="http://www.w3.org/2000/svg">
<rect x="0.5" y="0.5" width="219" height="95" rx="3.5" fill="#3F826D" stroke="#3F826D"/>
<rect x="5.5" y="5.5" width="209" height="85" fill="#FAFEFF" stroke="#3F826D"/>
<path d="M56.6703 27H55.6465V51.1055H56.6703V27Z" fill="#3F826D"/>
<path d="M33.4953 31.0021H28.8418L23.6298 36.9586V31.0021H20V47.1034H23.6298V40.3092L29.0279 47.1034H33.7746L26.7011 38.4478L33.4953 31.0021Z" fill="#3F826D"/>
<path d="M44.9433 32.3051C43.7333 31.2813 42.4303 31.0021 40.662 31.0021H35.8223V47.0103H39.452V41.333H41.0343C42.8026 41.333 44.1987 40.8676 45.1294 39.8439C46.3393 38.6339 46.5255 37.0517 46.5255 36.2141C46.6185 35.2834 46.4324 33.6081 44.9433 32.3051ZM39.5451 34.2596H40.2897C40.9412 34.2596 41.6858 34.2596 42.2442 34.7249C42.5234 34.9111 42.9888 35.3764 42.9888 36.2141C42.9888 36.8656 42.7095 37.424 42.2442 37.7963C41.6858 38.2616 41.0343 38.2616 40.4758 38.2616H39.5451V34.2596Z" fill="#3F826D"/>
<path d="M68.1181 37.424L74.3539 31.0021H77.6114L70.3518 38.2616L77.6114 47.0103H74.3539L68.5835 39.8439L68.1181 40.3092V46.9173H65.6982V31.0021H68.1181V37.424Z" fill="#3F826D"/>
<path d="M86.3601 36.9587H88.6869V47.1035H86.3601V46.0797C85.3363 47.2896 84.0333 47.4758 83.2887 47.4758C80.1243 47.4758 78.356 44.8698 78.356 42.0776C78.356 38.8202 80.5897 36.7726 83.2887 36.7726C84.0333 36.7726 85.3363 36.9587 86.267 38.2617V36.9587H86.3601ZM80.7758 41.9846C80.7758 43.7529 81.8927 45.2421 83.568 45.2421C85.0571 45.2421 86.4532 44.1252 86.4532 42.0776C86.4532 39.8439 85.0571 38.8202 83.568 38.8202C81.8927 38.8202 80.7758 40.2162 80.7758 41.9846Z" fill="#3F826D"/>
<path d="M100.135 47.1034H97.8079V39.0993H94.8296V43.1013C94.8296 43.939 94.7366 45.0558 93.8989 45.9865C92.9682 47.0103 91.6652 47.1965 90.5483 47.0103V44.8697C91.2929 45.0558 91.8513 44.7766 92.2236 44.4043C92.5028 44.032 92.5959 43.4736 92.5959 43.1013V36.9586H100.228V47.1034H100.135Z" fill="#3F826D"/>
<path d="M106.464 45.149L101.996 36.8656H104.881L107.86 42.543L110.745 36.8656H113.351L105.254 52.5016H102.648L106.464 45.149Z" fill="#3F826D"/>
<path d="M115.119 36.9586H121.355V39.0993H117.539V47.1034H115.212V36.9586H115.119Z" fill="#3F826D"/>
<path d="M130.662 36.9587H132.989V47.1035H130.662V46.0797C129.638 47.2896 128.335 47.4758 127.59 47.4758C124.426 47.4758 122.658 44.8698 122.658 42.0776C122.658 38.8202 124.891 36.7726 127.59 36.7726C128.335 36.7726 129.638 36.9587 130.569 38.2617V36.9587H130.662ZM125.078 41.9846C125.078 43.7529 126.194 45.2421 127.87 45.2421C129.359 45.2421 130.755 44.1252 130.755 42.0776C130.755 39.8439 129.359 38.8202 127.87 38.8202C126.194 38.8202 125.078 40.2162 125.078 41.9846Z" fill="#3F826D"/>
<path d="M153.837 31.0021V47.0103H151.417V33.3289H144.53V47.1034H142.11V31.0021H153.837Z" fill="#3F826D"/>
<path d="M165.285 47.1034H162.958V39.0993H159.98V43.1013C159.98 43.939 159.886 45.0558 159.049 45.9865C158.118 47.0103 156.815 47.1965 155.698 47.0103V44.8697C156.35 45.0558 157.001 44.7766 157.374 44.4043C157.653 44.032 157.746 43.4736 157.746 43.1013V36.9586H165.378V47.1034H165.285Z" fill="#3F826D"/>
<path d="M175.057 36.9587H177.384V47.1035H175.057V46.0797C174.033 47.2896 172.73 47.4758 171.986 47.4758C168.821 47.4758 167.053 44.8698 167.053 42.0776C167.053 38.8202 169.286 36.7726 171.986 36.7726C172.73 36.7726 174.033 36.9587 174.964 38.2617V36.9587H175.057ZM169.473 41.9846C169.473 43.7529 170.589 45.2421 172.265 45.2421C173.754 45.2421 175.15 44.1252 175.15 42.0776C175.15 39.8439 173.754 38.8202 172.265 38.8202C170.589 38.8202 169.473 40.2162 169.473 41.9846Z" fill="#3F826D"/>
<path d="M179.804 38.2617C180.083 37.9824 180.455 37.6102 181.107 37.2379C181.944 36.8656 182.689 36.6794 183.527 36.6794C184.457 36.6794 185.388 36.8656 186.133 37.424C186.691 37.8894 187.156 38.4478 187.156 39.3785C187.156 40.5884 186.412 41.2399 185.76 41.5192C186.412 41.6122 186.784 41.8914 187.063 42.1707C187.436 42.5429 187.901 43.1014 187.901 43.939C187.901 45.0559 187.343 46.0797 186.505 46.6381C185.76 47.1034 184.55 47.4757 183.527 47.4757C182.503 47.4757 181.479 47.1965 180.641 46.6381C180.083 46.2658 179.618 45.6143 179.338 45.0559L181.2 44.1252C181.479 44.6836 181.851 45.0559 182.037 45.1489C182.503 45.5212 183.061 45.6143 183.527 45.6143C184.457 45.6143 184.83 45.4282 185.016 45.242C185.295 45.0559 185.574 44.6836 185.574 44.1252C185.574 43.5667 185.295 43.2875 185.109 43.1014C184.737 42.8222 184.271 42.8222 183.806 42.8222H182.596V40.8677H183.62C183.899 40.8677 184.364 40.7746 184.643 40.5884C184.923 40.4023 185.016 40.1231 185.016 39.7508C185.016 39.3785 184.83 39.0993 184.55 38.9132C184.178 38.6339 183.713 38.6339 183.434 38.6339C183.061 38.6339 182.596 38.727 182.131 38.9132C181.851 39.0062 181.572 39.2854 181.386 39.5647L179.804 38.2617Z" fill="#3F826D"/>
<path d="M197.674 36.9587H200V47.1035H197.674V46.0797C196.65 47.2896 195.347 47.4758 194.602 47.4758C191.438 47.4758 189.669 44.8698 189.669 42.0776C189.669 38.8202 191.903 36.7726 194.602 36.7726C195.347 36.7726 196.65 36.9587 197.58 38.2617V36.9587H197.674ZM192.089 41.9846C192.089 43.7529 193.206 45.2421 194.881 45.2421C196.371 45.2421 197.767 44.1252 197.767 42.0776C197.767 39.8439 196.371 38.8202 194.881 38.8202C193.206 38.8202 192.089 40.2162 192.089 41.9846Z" fill="#3F826D"/>
<path d="M128.242 58.0858H132.244V58.7373H128.987V65.4384H128.242V58.0858Z" fill="#3F826D"/>
<path d="M141.086 61.8087C141.086 63.9493 139.411 65.7177 137.177 65.7177C135.036 65.7177 133.268 64.0424 133.268 61.8087C133.268 59.668 134.943 57.8997 137.177 57.8997C139.411 57.8997 141.086 59.5749 141.086 61.8087ZM140.248 61.8087C140.248 60.0403 138.945 58.6442 137.177 58.6442C135.409 58.6442 134.106 60.0403 134.106 61.8087C134.106 63.577 135.409 64.9731 137.177 64.9731C138.945 64.9731 140.248 63.577 140.248 61.8087Z" fill="#3F826D"/>
<path d="M149.463 59.8542C148.997 59.2957 148.16 58.6442 146.95 58.6442C145.181 58.6442 143.878 60.0403 143.878 61.8087C143.878 63.9493 145.461 64.9731 146.95 64.9731C148.16 64.9731 149.09 64.3216 149.649 63.6701V64.6008C149.183 65.0662 148.253 65.6246 146.95 65.6246C144.716 65.6246 143.134 63.9493 143.134 61.8087C143.134 59.668 144.623 57.8997 146.95 57.8997C147.508 57.8997 148.439 57.9927 149.463 58.8304V59.8542Z" fill="#3F826D"/>
<path d="M153.651 58.7373H151.045V58.0858H156.908V58.7373H154.302V65.4384H153.651V58.7373Z" fill="#3F826D"/>
<path d="M159.514 58.0858V63.9493L164.726 57.6205V65.4385H163.982V59.575L158.77 65.9038V58.0858H159.514Z" fill="#3F826D"/>
<path d="M167.611 58.0858H168.356V61.3433H172.544V58.0858H173.289V65.4384H172.544V61.9948H168.356V65.4384H167.611V58.0858Z" fill="#3F826D"/>
<path d="M176.826 58.0858V63.9493L182.038 57.6205V65.4385H181.293V59.575L176.081 65.9038V58.0858H176.826Z" fill="#3F826D"/>
<path d="M184.923 58.0858H185.667V64.7869H189.669V58.0858H190.414V64.7869H191.531V67.486H190.879V65.5315H185.109V58.0858H184.923Z" fill="#3F826D"/>
<path d="M199.256 58.0858H200V65.4384H199.256V64.1354C198.511 65.2523 197.301 65.6246 196.37 65.6246C194.416 65.6246 192.741 64.1354 192.741 61.7156C192.741 59.4819 194.23 57.8997 196.37 57.8997C197.487 57.8997 198.511 58.365 199.256 59.3888V58.0858ZM193.578 61.7156C193.578 63.3909 194.602 64.9731 196.464 64.9731C198.325 64.9731 199.349 63.3909 199.349 61.7156C199.349 59.5749 197.767 58.6442 196.464 58.6442C194.974 58.6442 193.578 59.7611 193.578 61.7156Z" fill="#3F826D"/>
</svg>
