<svg width="25" height="24" viewBox="0 0 25 24" fill="none" xmlns="http://www.w3.org/2000/svg">
<path fill-rule="evenodd" clip-rule="evenodd" d="M12.4019 23.3276L13.0596 22.7533C18.5905 17.9237 21.4019 13.7068 21.4019 10C21.4019 4.75066 17.3048 1 12.4019 1C7.49891 1 3.40186 4.75066 3.40186 10C3.40186 13.7068 6.21316 17.9237 11.7441 22.7533L12.4019 23.3276ZM12.4019 20.6634C7.70847 16.4335 5.40186 12.8492 5.40186 10C5.40186 5.8966 8.56597 3 12.4019 3C16.2377 3 19.4019 5.8966 19.4019 10C19.4019 12.8492 17.0952 16.4335 12.4019 20.6634ZM12.4019 5C15.1633 5 17.4019 7.23858 17.4019 10C17.4019 12.7614 15.1633 15 12.4019 15C9.64043 15 7.40186 12.7614 7.40186 10C7.40186 7.23858 9.64043 5 12.4019 5ZM9.40186 10C9.40186 8.34315 10.745 7 12.4019 7C14.0587 7 15.4019 8.34315 15.4019 10C15.4019 11.6569 14.0587 13 12.4019 13C10.745 13 9.40186 11.6569 9.40186 10Z" fill="#3F826D"/>
</svg>
