<svg width="64" height="64" viewBox="0 0 64 64" fill="none" xmlns="http://www.w3.org/2000/svg">
<path fill-rule="evenodd" clip-rule="evenodd" d="M32 62.2069L33.7539 60.6754C48.5032 47.7967 56 36.5514 56 26.6667C56 12.6685 45.0745 2.66675 32 2.66675C18.9255 2.66675 8 12.6685 8 26.6667C8 36.5514 15.4968 47.7967 30.2461 60.6754L32 62.2069ZM24 26.6667C24 22.2485 27.5817 18.6667 32 18.6667C36.4183 18.6667 40 22.2485 40 26.6667C40 31.085 36.4183 34.6667 32 34.6667C27.5817 34.6667 24 31.085 24 26.6667Z" fill="#FF0514"/>
<path fill-rule="evenodd" clip-rule="evenodd" d="M32 18.6667C27.5817 18.6667 24 22.2485 24 26.6667C24 31.085 27.5817 34.6667 32 34.6667C36.4183 34.6667 40 31.085 40 26.6667C40 22.2485 36.4183 18.6667 32 18.6667Z" fill="white"/>
</svg>
