<svg width="32" height="32" viewBox="0 0 32 32" fill="none" xmlns="http://www.w3.org/2000/svg">
<g clip-path="url(#clip0_310_10571)">
<path d="M15.9978 31.9955C24.8331 31.9955 31.9955 24.8331 31.9955 15.9978C31.9955 7.16244 24.8331 0 15.9978 0C7.16244 0 0 7.16244 0 15.9978C0 24.8331 7.16244 31.9955 15.9978 31.9955Z" fill="#838C96"/>
<path d="M25.8826 12.8806L27.8111 10.7816H23.528C21.3842 9.31951 18.7964 8.46289 15.9978 8.46289C13.2037 8.46289 10.6204 9.31951 8.48105 10.7816H4.18896L6.11749 12.8806C4.93346 13.9614 4.19345 15.5177 4.19345 17.2444C4.19345 20.5049 6.83508 23.1466 10.0956 23.1466C11.6429 23.1466 13.0557 22.5501 14.1052 21.5723L15.9978 23.6309L17.8905 21.5723C18.9444 22.5501 20.3527 23.1421 21.9 23.1421C25.1606 23.1421 27.8067 20.5005 27.8067 17.2399C27.8067 15.5132 27.0667 13.9569 25.8826 12.8806ZM10.1001 21.236C7.89353 21.236 6.10852 19.4465 6.10852 17.2444C6.10852 15.0423 7.89801 13.2528 10.1001 13.2528C12.3022 13.2528 14.0917 15.0423 14.0917 17.2444C14.0917 19.4465 12.3067 21.236 10.1001 21.236ZM16.0023 17.1233C16.0023 14.4951 14.0917 12.2392 11.5667 11.2749C12.9301 10.7054 14.4281 10.3869 15.9978 10.3869C17.5675 10.3869 19.0655 10.7054 20.4334 11.2749C17.9129 12.2437 16.0023 14.4951 16.0023 17.1233ZM21.9045 21.236C19.6979 21.236 17.9129 19.4465 17.9129 17.2444C17.9129 15.0423 19.7024 13.2528 21.9045 13.2528C24.1066 13.2528 25.8961 15.0423 25.8961 17.2444C25.8961 19.4465 24.1111 21.236 21.9045 21.236ZM21.9045 15.1454C20.7474 15.1454 19.81 16.0828 19.81 17.2399C19.81 18.397 20.7474 19.3344 21.9045 19.3344C23.0616 19.3344 23.999 18.397 23.999 17.2399C23.9945 16.0828 23.0616 15.1454 21.9045 15.1454ZM12.1901 17.2399C12.1901 18.397 11.2527 19.3344 10.0956 19.3344C8.93852 19.3344 8.00116 18.397 8.00116 17.2399C8.00116 16.0828 8.93852 15.1454 10.0956 15.1454C11.2572 15.1454 12.1901 16.0828 12.1901 17.2399Z" fill="white"/>
</g>
<defs>
<clipPath id="clip0_310_10571">
<rect width="32" height="32" fill="white"/>
</clipPath>
</defs>
</svg>
