<svg width="24" height="24" viewBox="0 0 24 24" fill="none" xmlns="http://www.w3.org/2000/svg">
<path d="M11.9983 23.9966C18.6248 23.9966 23.9966 18.6248 23.9966 11.9983C23.9966 5.37183 18.6248 0 11.9983 0C5.37183 0 0 5.37183 0 11.9983C0 18.6248 5.37183 23.9966 11.9983 23.9966Z" fill="#2787F5"/>
<path d="M19.412 9.66053L20.8584 8.08632H17.646C16.0382 6.98976 14.0973 6.34729 11.9984 6.34729C9.90277 6.34729 7.96528 6.98976 6.36079 8.08632H3.14172L4.58812 9.66053C3.7001 10.4712 3.14509 11.6384 3.14509 12.9334C3.14509 15.3788 5.12631 17.36 7.57172 17.36C8.7322 17.36 9.79177 16.9127 10.5789 16.1794L11.9984 17.7233L13.4178 16.1794C14.2083 16.9127 15.2645 17.3567 16.425 17.3567C18.8704 17.3567 20.855 15.3755 20.855 12.9301C20.855 11.635 20.3 10.4678 19.412 9.66053ZM7.57509 15.9271C5.92014 15.9271 4.58139 14.585 4.58139 12.9334C4.58139 11.2818 5.92351 9.93972 7.57509 9.93972C9.22667 9.93972 10.5688 11.2818 10.5688 12.9334C10.5688 14.585 9.23003 15.9271 7.57509 15.9271ZM12.0017 12.8426C12.0017 10.8715 10.5688 9.17953 8.67502 8.45633C9.69759 8.02914 10.8211 7.79032 11.9984 7.79032C13.1757 7.79032 14.2991 8.02914 15.3251 8.45633C13.4347 9.18289 12.0017 10.8715 12.0017 12.8426ZM16.4284 15.9271C14.7734 15.9271 13.4347 14.585 13.4347 12.9334C13.4347 11.2818 14.7768 9.93972 16.4284 9.93972C18.0799 9.93972 19.4221 11.2818 19.4221 12.9334C19.4221 14.585 18.0833 15.9271 16.4284 15.9271ZM16.4284 11.3592C15.5605 11.3592 14.8575 12.0622 14.8575 12.9301C14.8575 13.7979 15.5605 14.5009 16.4284 14.5009C17.2962 14.5009 17.9992 13.7979 17.9992 12.9301C17.9958 12.0622 17.2962 11.3592 16.4284 11.3592ZM9.14258 12.9301C9.14258 13.7979 8.43956 14.5009 7.57172 14.5009C6.70389 14.5009 6.00087 13.7979 6.00087 12.9301C6.00087 12.0622 6.70389 11.3592 7.57172 11.3592C8.44292 11.3592 9.14258 12.0622 9.14258 12.9301Z" fill="white"/>
</svg>
