<svg width="24" height="24" viewBox="0 0 24 24" fill="none" xmlns="http://www.w3.org/2000/svg">
<path d="M21 24H3C1.344 24 0 22.656 0 21V3C0 1.344 1.344 0 3 0H21C22.656 0 24 1.344 24 3V21C24 22.656 22.656 24 21 24Z" fill="#1D9BF0"/>
<path d="M9.21604 18.096C14.874 18.096 17.97 13.404 17.97 9.34201C17.97 9.21001 17.97 9.07801 17.964 8.94601C18.564 8.51401 19.086 7.96801 19.5 7.35001C18.948 7.59601 18.354 7.75801 17.73 7.83601C18.366 7.45801 18.852 6.85201 19.086 6.13201C18.492 6.48601 17.832 6.73801 17.13 6.87601C16.566 6.27601 15.768 5.90401 14.886 5.90401C13.188 5.90401 11.808 7.28401 11.808 8.98201C11.808 9.22201 11.838 9.45601 11.886 9.68401C9.33004 9.55801 7.06204 8.32801 5.54404 6.46801C5.28004 6.92401 5.13004 7.45201 5.13004 8.01601C5.13004 9.08401 5.67604 10.026 6.49804 10.578C5.99404 10.56 5.52004 10.422 5.10604 10.194C5.10604 10.206 5.10604 10.218 5.10604 10.236C5.10604 11.724 6.16804 12.972 7.57204 13.254C7.31404 13.326 7.04404 13.362 6.76204 13.362C6.56404 13.362 6.37204 13.344 6.18604 13.308C6.57604 14.532 7.71604 15.42 9.06004 15.444C8.00404 16.272 6.67804 16.764 5.23804 16.764C4.99204 16.764 4.74604 16.752 4.50604 16.722C5.86204 17.586 7.48204 18.096 9.21604 18.096Z" fill="white"/>
</svg>
