<svg width="32" height="32" viewBox="0 0 32 32" fill="none" xmlns="http://www.w3.org/2000/svg">
<g clip-path="url(#clip0_310_10572)">
<path d="M0 15.3333C0 8.13333 0 4.46667 2.26667 2.26667C4.53333 0.0666668 8.13333 0 15.3333 0H16.6667C23.8667 0 27.5333 0 29.7333 2.26667C32 4.46667 32 8.13333 32 15.3333V16.6667C32 23.8667 32 27.5333 29.7333 29.7333C27.5333 32 23.8667 32 16.6667 32H15.3333C8.13333 32 4.46667 32 2.26667 29.7333C0 27.5333 0 23.8667 0 16.6667V15.3333Z" fill="#838C96"/>
<path fill-rule="evenodd" clip-rule="evenodd" d="M8.66654 10H6.3332C5.66654 10 5.5332 10.3333 5.5332 10.6667C5.5332 11.2667 6.3332 14.3333 9.19987 18.4C11.1332 21.2 13.8665 22.6667 16.3332 22.6667C17.7999 22.6667 17.9999 22.3333 17.9999 21.7333V19.6667C17.9999 19 18.1332 18.8667 18.5999 18.8667C18.9332 18.8667 19.5332 19.0667 20.9332 20.4C22.5332 22 22.7999 22.6667 23.6665 22.6667H25.9999C26.6665 22.6667 26.9999 22.3333 26.7999 21.6667C26.5999 21 25.8665 20.0667 24.7999 18.9333C24.2665 18.2667 23.4665 17.6 23.1999 17.2667C22.8665 16.8 22.9332 16.6 23.1999 16.2C23.1999 16.2 26.0665 12.2 26.3332 10.8667C26.4665 10.4 26.3332 10 25.5999 10H23.3332C22.7332 10 22.4665 10.3333 22.3332 10.6667C22.3332 10.6667 21.1332 13.5333 19.4665 15.4667C18.9332 16 18.6665 16.2 18.3999 16.2C18.2665 16.2 18.0665 16 18.0665 15.5333V10.9333C18.0665 10.3333 17.8665 10.0667 17.3999 10.0667H13.7332C13.3332 10.0667 13.1332 10.3333 13.1332 10.6C13.1332 11.1333 13.9999 11.2667 14.0665 12.8667V16.3333C14.0665 17.0667 13.9332 17.2 13.6665 17.2C12.8665 17.2 10.9332 14.2667 9.79987 11C9.46654 10.2667 9.26654 10 8.66654 10Z" fill="white"/>
</g>
<defs>
<clipPath id="clip0_310_10572">
<rect width="32" height="32" fill="white"/>
</clipPath>
</defs>
</svg>
