<svg width="24" height="24" viewBox="0 0 24 24" fill="none" xmlns="http://www.w3.org/2000/svg">
<path d="M0 11.5C0 6.1 0 3.35 1.7 1.7C3.4 0.0500001 6.1 0 11.5 0H12.5C17.9 0 20.65 0 22.3 1.7C24 3.35 24 6.1 24 11.5V12.5C24 17.9 24 20.65 22.3 22.3C20.65 24 17.9 24 12.5 24H11.5C6.1 24 3.35 24 1.7 22.3C0 20.65 0 17.9 0 12.5V11.5Z" fill="#2787F5"/>
<path fill-rule="evenodd" clip-rule="evenodd" d="M6.50002 7.5H4.75002C4.25002 7.5 4.15002 7.75 4.15002 8C4.15002 8.45 4.75002 10.75 6.90002 13.8C8.35002 15.9 10.4 17 12.25 17C13.35 17 13.5 16.75 13.5 16.3V14.75C13.5 14.25 13.6 14.15 13.95 14.15C14.2 14.15 14.65 14.3 15.7 15.3C16.9 16.5 17.1 17 17.75 17H19.5C20 17 20.25 16.75 20.1 16.25C19.95 15.75 19.4 15.05 18.6 14.2C18.2 13.7 17.6 13.2 17.4 12.95C17.15 12.6 17.2 12.45 17.4 12.15C17.4 12.15 19.55 9.15 19.75 8.15C19.85 7.8 19.75 7.5 19.2 7.5H17.5C17.05 7.5 16.85 7.75 16.75 8C16.75 8 15.85 10.15 14.6 11.6C14.2 12 14 12.15 13.8 12.15C13.7 12.15 13.55 12 13.55 11.65V8.2C13.55 7.75 13.4 7.55 13.05 7.55H10.3C10 7.55 9.85002 7.75 9.85002 7.95C9.85002 8.35 10.5 8.45 10.55 9.65V12.25C10.55 12.8 10.45 12.9 10.25 12.9C9.65002 12.9 8.20002 10.7 7.35002 8.25C7.10002 7.7 6.95002 7.5 6.50002 7.5Z" fill="white"/>
</svg>
