<svg width="23" height="20" viewBox="0 0 23 20" fill="none" xmlns="http://www.w3.org/2000/svg">
<path d="M22.4375 17.7031V15.75H18.5312C16.3773 15.75 14.625 13.9977 14.625 11.8438C14.625 9.68984 16.3773 7.9375 18.5312 7.9375H22.4375V5.98438C22.4375 4.90703 21.5609 4.03125 20.4844 4.03125H3.6875C3.25703 4.03125 2.90625 3.68125 2.90625 3.25C2.90625 2.81875 3.25703 2.46875 3.6875 2.46875H18.1406C18.7883 2.46875 19.3125 1.94375 19.3125 1.29688C19.3125 0.65 18.7883 0.125 18.1406 0.125H3.6875C1.96406 0.125 0.5625 1.52656 0.5625 3.25V16.5312C0.5625 18.2547 1.96406 19.6562 3.6875 19.6562H20.4844C21.5609 19.6562 22.4375 18.7805 22.4375 17.7031Z" fill="white"/>
<path d="M16.1875 11.8438C16.1875 13.1383 17.2367 14.1875 18.5312 14.1875H22.4375V9.5H18.5312C17.2367 9.5 16.1875 10.5492 16.1875 11.8438Z" fill="white"/>
</svg>
