<svg width="30" height="30" viewBox="0 0 30 30" fill="none" xmlns="http://www.w3.org/2000/svg">
<path d="M14.985 0C6.795 0 0.12 6.675 0.12 14.865C0.12 17.49 0.81 20.04 2.1 22.29L0 30L7.875 27.93C10.05 29.115 12.495 29.745 14.985 29.745C23.175 29.745 29.85 23.07 29.85 14.88C29.85 10.905 28.305 7.17 25.5 4.365C22.695 1.545 18.96 0 14.985 0ZM15 2.505C18.3 2.505 21.39 3.795 23.73 6.135C26.055 8.475 27.345 11.58 27.345 14.88C27.345 21.69 21.795 27.225 14.985 27.225C12.765 27.225 10.59 26.64 8.7 25.5L8.25 25.245L3.57 26.475L4.815 21.915L4.515 21.435C3.285 19.5 2.625 17.205 2.625 14.865C2.64 8.055 8.175 2.505 15 2.505ZM9.72 7.995C9.48 7.995 9.075 8.085 8.73 8.46C8.4 8.835 7.425 9.75 7.425 11.565C7.425 13.395 8.76 15.15 8.925 15.405C9.135 15.66 11.565 19.41 15.3 21C16.185 21.405 16.875 21.63 17.415 21.795C18.3 22.08 19.11 22.035 19.755 21.945C20.475 21.84 21.945 21.045 22.26 20.175C22.575 19.305 22.575 18.57 22.485 18.405C22.38 18.255 22.14 18.165 21.765 18C21.39 17.79 19.56 16.89 19.23 16.77C18.885 16.65 18.675 16.59 18.39 16.95C18.15 17.325 17.43 18.165 17.22 18.405C16.995 18.66 16.785 18.69 16.425 18.51C16.035 18.315 14.835 17.925 13.425 16.665C12.315 15.675 11.58 14.46 11.355 14.085C11.175 13.725 11.34 13.5 11.52 13.335C11.685 13.17 11.925 12.9 12.075 12.675C12.27 12.465 12.33 12.3 12.45 12.06C12.57 11.805 12.51 11.595 12.42 11.415C12.33 11.25 11.58 9.39 11.265 8.655C10.965 7.935 10.665 8.025 10.425 8.01C10.215 8.01 9.975 7.995 9.72 7.995Z" fill="url(#paint0_linear)"/>
<defs>
<linearGradient id="paint0_linear" x1="14.9252" y1="29.9969" x2="14.9252" y2="-0.00315249" gradientUnits="userSpaceOnUse">
<stop stop-color="#3F826D"/>
<stop offset="1" stop-color="#3F826D"/>
</linearGradient>
</defs>
</svg>
