<svg width="36" height="36" viewBox="0 0 36 36" fill="none" xmlns="http://www.w3.org/2000/svg">
<path d="M17.9865 4.5C10.6155 4.5 4.608 10.5075 4.608 17.8785C4.608 20.241 5.229 22.536 6.39 24.561L4.5 31.5L11.5875 29.637C13.545 30.7035 15.7455 31.2705 17.9865 31.2705C25.3575 31.2705 31.365 25.263 31.365 17.892C31.365 14.3145 29.9745 10.953 27.45 8.4285C24.9255 5.8905 21.564 4.5 17.9865 4.5ZM18 6.7545C20.97 6.7545 23.751 7.9155 25.857 10.0215C27.9495 12.1275 29.1105 14.922 29.1105 17.892C29.1105 24.021 24.1155 29.0025 17.9865 29.0025C15.9885 29.0025 14.031 28.476 12.33 27.45L11.925 27.2205L7.713 28.3275L8.8335 24.2235L8.5635 23.7915C7.4565 22.05 6.8625 19.9845 6.8625 17.8785C6.876 11.7495 11.8575 6.7545 18 6.7545ZM13.248 11.6955C13.032 11.6955 12.6675 11.7765 12.357 12.114C12.06 12.4515 11.1825 13.275 11.1825 14.9085C11.1825 16.5555 12.384 18.135 12.5325 18.3645C12.7215 18.594 14.9085 21.969 18.27 23.4C19.0665 23.7645 19.6875 23.967 20.1735 24.1155C20.97 24.372 21.699 24.3315 22.2795 24.2505C22.9275 24.156 24.2505 23.4405 24.534 22.6575C24.8175 21.8745 24.8175 21.213 24.7365 21.0645C24.642 20.9295 24.426 20.8485 24.0885 20.7C23.751 20.511 22.104 19.701 21.807 19.593C21.4965 19.485 21.3075 19.431 21.051 19.755C20.835 20.0925 20.187 20.8485 19.998 21.0645C19.7955 21.294 19.6065 21.321 19.2825 21.159C18.9315 20.9835 17.8515 20.6325 16.5825 19.4985C15.5835 18.6075 14.922 17.514 14.7195 17.1765C14.5575 16.8525 14.706 16.65 14.868 16.5015C15.0165 16.353 15.2325 16.11 15.3675 15.9075C15.543 15.7185 15.597 15.57 15.705 15.354C15.813 15.1245 15.759 14.9355 15.678 14.7735C15.597 14.625 14.922 12.951 14.6385 12.2895C14.3685 11.6415 14.0985 11.7225 13.8825 11.709C13.6935 11.709 13.4775 11.6955 13.248 11.6955Z" fill="#FFFFFF"/>
</svg>
